<svg width="67" height="54" viewBox="0 0 67 54" fill="none" xmlns="http://www.w3.org/2000/svg">
<path d="M20.0132 13.107V13.8749H18.172V13.4847L20.0132 13.107Z" fill="#CE0000"/>
<path d="M11.4528 13.4723V13.8749H9.6615V13.107L11.4528 13.4723Z" fill="#CE0000"/>
<path d="M48.3691 13.4681V13.8749H46.6028V13.107L48.3691 13.4681Z" fill="#CE0000"/>
<path d="M56.9588 13.107V13.8749H55.0884V13.4889L56.9588 13.107Z" fill="#CE0000"/>
<path d="M61.3452 14.5515H55.0884V18.7229H61.3452V14.5515Z" fill="#CE0000"/>
<path d="M55.3383 46.6531V53.3275H48.1234V46.6531L48.6565 46.7445C50.6924 47.0599 52.765 47.0599 54.8009 46.7445L55.3383 46.6531Z" fill="#662424"/>
<path d="M54.8093 46.7362C54.3177 46.815 53.8179 46.8731 53.3221 46.9105V53.3192H55.3467V46.6531L54.8093 46.7362Z" fill="#915151"/>
<path d="M18.422 46.6531V53.3275H11.2028V46.6531L11.7402 46.7445C13.7761 47.0599 15.8487 47.0599 17.8846 46.7445L18.422 46.6531Z" fill="#662424"/>
<path d="M11.7402 46.7362L11.2028 46.6448V53.3192H12.9566V46.8856C12.5483 46.8482 12.1443 46.7984 11.7402 46.7362Z" fill="#915151"/>
<path d="M11.4486 14.5515H5.19586V18.7229H11.4486V14.5515Z" fill="#CE0000"/>
<path d="M17.493 8.14274V46.1094H17.4596L17.2305 46.1384H17.1222L16.9473 46.1592L16.7306 46.1841H16.564H16.439L16.1516 46.209L15.8184 46.2297H15.4851H15.1477H14.477H14.1396H13.8063L13.4689 46.209L13.1815 46.1841H13.0607H12.8899L12.6858 46.1633L12.49 46.1384H12.415L12.1525 46.1052H12.1317V7.63635L12.4858 7.67371L14.0354 7.82729L14.7936 7.902C15.5518 7.97256 16.3057 8.03482 17.0556 8.09708L17.493 8.14274Z" fill="#CE0000"/>
<path d="M15.531 46.2712L15.1811 46.238L14.8978 46.2131H14.7728H14.602L14.3979 46.1924L14.2021 46.1675H14.1313L13.8689 46.1343H13.8439V7.82313L12.4733 7.68616L12.1193 7.6488V46.1094H12.1401L12.4025 46.1426H12.4775L12.6733 46.1675L12.8774 46.1882H13.0482H13.169L13.4564 46.2131L13.7939 46.2339H14.1271H14.4646H15.1352H15.4727H15.6601L15.531 46.2712Z" fill="#CE0000"/>
<path d="M65.3235 0.80011L63.7614 3.95881C62.9907 4.06258 62.295 4.14974 61.6452 4.2286C59.9373 4.43614 58.1919 4.64368 56.4548 4.8014C54.2719 5.02139 52.0808 5.21648 49.9354 5.36175C46.6029 5.59696 43.2703 5.76299 39.9378 5.85984C35.4944 5.98436 31.0621 5.98436 26.6409 5.85984C23.2917 5.76575 19.9522 5.59973 16.6224 5.36175C14.4812 5.20818 12.2859 5.02139 10.0989 4.8014C8.36596 4.62707 6.6247 4.43614 4.91677 4.2286C4.26692 4.14974 3.57542 4.06258 2.8006 3.95881L1.23846 0.80011C9.62754 2.34789 18.1219 3.26226 26.6492 3.53543C31.069 3.68901 35.5221 3.68901 39.9461 3.53543C48.4622 3.26081 56.9454 2.34645 65.3235 0.80011Z" fill="#77453E"/>
<path d="M64.7903 1.87514L65.3235 0.80011C45.1949 4.60217 21.3463 4.60217 1.21765 0.80011L1.75086 1.87514C21.5879 5.56098 44.9533 5.56098 64.7903 1.87514Z" fill="#77453E"/>
<path d="M61.3453 4.94672V6.10892C59.1375 6.42022 56.9046 6.69832 54.7135 6.93906C52.6973 7.15905 50.6686 7.35413 48.6857 7.49526C44.2576 7.83977 39.7753 8.039 35.3555 8.08051C33.9766 8.08051 32.5811 8.08051 31.1898 8.08051C26.7658 8.039 22.2835 7.83977 17.8596 7.49526C15.8767 7.34583 13.848 7.15905 11.8277 6.93906C9.6365 6.70247 7.40785 6.42437 5.19586 6.10892V4.94672L5.82904 5.02143L6.39558 5.08784L7.59946 5.22481L8.71171 5.34103L9.25324 5.39914L10.0156 5.47801C12.2109 5.69385 14.4104 5.89308 16.5557 6.0342C18.2886 6.15872 20.0257 6.26387 21.767 6.34966C23.5083 6.43544 25.2495 6.50185 26.9908 6.54889L29.0736 6.59455C31.8646 6.64436 34.6571 6.64436 37.4508 6.59455L39.5337 6.54889C41.2805 6.50462 43.0232 6.4382 44.7616 6.34966C46.5001 6.26111 48.2358 6.15596 49.9688 6.0342C52.1183 5.88478 54.3177 5.69385 56.5089 5.47801L57.2546 5.39914L57.8128 5.34103C58.6848 5.24972 59.554 5.15425 60.4205 5.05463L60.912 4.99652L61.3453 4.94672Z" fill="#CE0000"/>
<path d="M35.0098 8.76123V13.8625H31.5314V8.76123H35.0098Z" fill="#CE0000"/>
<path d="M35.0098 8.76123V13.8625H31.5314V8.76123H35.0098Z" fill="#CE0000"/>
<path d="M34.4265 8.76538H31.5106V10.3966H34.9889V8.76538H34.4265Z" fill="#CE0000"/>
<path d="M48.3691 14.5515H18.172V18.7229H48.3691V14.5515Z" fill="#CE0000"/>
<path d="M54.4094 7.63635V46.0969H54.3802L54.1511 46.126C54.1137 46.128 54.0761 46.128 54.0387 46.126L53.8679 46.1467L53.6512 46.1716H53.4804H53.3596L53.0889 46.238L52.7556 46.2588H52.4182H52.0808H51.4101H51.0768H50.7394L50.4062 46.238L50.1187 46.2131H49.9938H49.8271L49.6188 46.1924L49.4272 46.1675H49.3523L49.0898 46.1343H49.0648V13.3436C49.0742 13.3252 49.0812 13.3057 49.0856 13.2855C49.0977 13.2212 49.0905 13.1548 49.0648 13.0945V8.14274L49.5022 8.10953C50.252 8.04727 51.006 7.98501 51.7642 7.91445L52.5223 7.83974L54.072 7.68616L54.4094 7.63635Z" fill="#CE0000"/>
<path d="M54.0553 7.68616L52.5057 7.83974L51.7475 7.91445C50.9894 7.98501 50.2354 8.04727 49.4855 8.10953L49.0482 8.14274V8.28802L49.8271 8.21745L50.5853 8.14689L52.135 7.99331L52.489 7.95596V46.2796H52.739L53.0722 46.2588L53.3597 46.2339H53.4805H53.6512L53.8679 46.209L54.0387 46.1882C54.0761 46.1903 54.1137 46.1903 54.1511 46.1882L54.3802 46.1592H54.4094V7.63635L54.0553 7.68616Z" fill="#CE0000"/>
<path d="M62.0243 14.2153V19.0633C62.0243 19.1529 61.9889 19.2388 61.9257 19.3025C61.8625 19.3662 61.7767 19.4026 61.6869 19.4037H55.0884V18.723H61.3369V14.5722H57.292C57.3819 14.5711 57.4677 14.5348 57.5309 14.4711C57.5941 14.4074 57.6295 14.3214 57.6295 14.2319V13.8625H61.6785C61.7248 13.8619 61.7707 13.8706 61.8135 13.8883C61.8562 13.9059 61.895 13.932 61.9273 13.965C61.9596 13.998 61.9849 14.0372 62.0016 14.0802C62.0182 14.1232 62.026 14.1692 62.0243 14.2153Z" fill="white"/>
<path d="M62.0242 4.56482V4.86367L61.7243 4.90103L61.3452 4.94669L60.9287 4.99649L60.4371 5.0546C59.5706 5.15422 58.7014 5.24969 57.8294 5.341L57.2712 5.39911L56.5255 5.47798C54.3344 5.69382 52.1349 5.89305 49.9854 6.03417C48.2524 6.15869 46.5167 6.26384 44.7783 6.34963C43.0398 6.43541 41.2971 6.50182 39.5503 6.54886L37.4675 6.59452C36.0789 6.61943 34.6834 6.63188 33.2809 6.63188C31.8854 6.63188 30.4858 6.63188 29.0903 6.59452L27.0074 6.54886C25.2634 6.50459 23.5221 6.43817 21.7836 6.34963C20.0451 6.26108 18.308 6.15593 16.5723 6.03417C14.427 5.88475 12.2275 5.69382 10.0322 5.47798L9.26987 5.39911L8.72834 5.341L7.61609 5.22478L6.41221 5.08781L5.84567 5.0214L5.21249 4.94669L4.83341 4.90103L4.53348 4.86367V4.56482C4.53278 4.51663 4.54288 4.46888 4.56306 4.42508C4.58324 4.38128 4.61299 4.34252 4.65012 4.31163C4.68494 4.27924 4.72655 4.25499 4.77195 4.24063C4.81734 4.22627 4.86538 4.22216 4.91256 4.22861C6.6205 4.43614 8.36176 4.64368 10.0947 4.80141C12.2817 5.0214 14.477 5.21648 16.6182 5.36176C27.7124 6.15435 38.8494 6.15435 49.9437 5.36176C52.0891 5.20818 54.2802 5.0214 56.463 4.80141C58.2001 4.62708 59.9456 4.43614 61.6535 4.22861C61.7013 4.2224 61.7499 4.22661 61.7959 4.24095C61.842 4.25528 61.8843 4.27939 61.9201 4.31163C61.9543 4.3442 61.9813 4.38357 61.9992 4.42719C62.0171 4.47081 62.0257 4.5177 62.0242 4.56482Z" fill="white"/>
<path d="M59.5249 53.3192C59.6155 53.3192 59.7024 53.355 59.7664 53.4188C59.8305 53.4827 59.8665 53.5692 59.8665 53.6595C59.8665 53.7498 59.8305 53.8364 59.7664 53.9002C59.7024 53.964 59.6155 53.9999 59.5249 53.9999H55.6799C55.7698 53.9988 55.8556 53.9624 55.9188 53.8987C55.982 53.835 56.0174 53.7491 56.0174 53.6595V53.3192H59.5249Z" fill="white"/>
<path d="M57.6378 13.8624V14.2028C57.6431 14.2504 57.6383 14.2985 57.6236 14.3441C57.609 14.3897 57.5849 14.4317 57.5528 14.4673C57.5208 14.503 57.4815 14.5315 57.4377 14.551C57.3938 14.5706 57.3463 14.5807 57.2983 14.5807C57.2503 14.5807 57.2028 14.5706 57.1589 14.551C57.1151 14.5315 57.0758 14.503 57.0438 14.4673C57.0118 14.4317 56.9876 14.3897 56.973 14.3441C56.9583 14.2985 56.9535 14.2504 56.9588 14.2028V13.8624H57.6378Z" fill="white"/>
<path d="M57.6378 12.6919V13.8624H56.9588V13.0945L55.0884 13.4764V12.7874L57.2296 12.3474C57.279 12.337 57.3303 12.3379 57.3794 12.3501C57.4284 12.3623 57.4741 12.3855 57.5128 12.418C57.5536 12.4508 57.5861 12.4927 57.6078 12.5402C57.6295 12.5878 57.6397 12.6397 57.6378 12.6919Z" fill="white"/>
<path d="M57.3004 14.5556H55.0884V13.8624H56.9588V14.2028C56.9571 14.2485 56.9647 14.2941 56.9811 14.3369C56.9975 14.3796 57.0224 14.4186 57.0543 14.4515C57.0862 14.4845 57.1244 14.5107 57.1667 14.5286C57.209 14.5464 57.2544 14.5556 57.3004 14.5556Z" fill="white"/>
<path d="M56.0048 53.3192V53.6595C56.0048 53.7491 55.9694 53.835 55.9063 53.8987C55.8431 53.9624 55.7573 53.9988 55.6674 53.9999H47.7526C47.662 53.9999 47.5751 53.964 47.5111 53.9002C47.447 53.8364 47.411 53.7498 47.411 53.6595V53.3192H56.0048Z" fill="white"/>
<path d="M56.0049 46.238V53.3233H55.3384V46.6531L54.8093 46.7444C54.888 46.7298 54.9591 46.6882 55.0101 46.6268C55.0611 46.5653 55.0888 46.488 55.0884 46.4082V45.9932L55.6091 45.8935C55.6586 45.8831 55.7099 45.884 55.7589 45.8963C55.808 45.9085 55.8537 45.9317 55.8924 45.9641C55.9309 45.9982 55.961 46.0406 55.9805 46.0881C56 46.1356 56.0084 46.1869 56.0049 46.238Z" fill="white"/>
<path d="M55.0884 46.0015V46.4165C55.0888 46.4963 55.0611 46.5736 55.0101 46.6351C54.9591 46.6965 54.888 46.7382 54.8093 46.7527C52.7734 47.0682 50.7008 47.0682 48.6649 46.7527C48.5847 46.7399 48.5117 46.699 48.4591 46.6374C48.4064 46.5758 48.3775 46.4975 48.3775 46.4165V46.0015L48.7691 46.0679L49.0565 46.1094H49.0815L49.3439 46.1426H49.4189L49.6106 46.1675L49.8188 46.1883H49.9855H50.1104L50.3979 46.2132L50.7311 46.2339H51.0686H51.4018H52.0725H52.4099H52.7473L53.0806 46.2132L53.368 46.1883H53.4888H53.6596L53.8762 46.1633L54.047 46.1426C54.0845 46.1446 54.122 46.1446 54.1595 46.1426L54.3886 46.1135H54.4178L54.7052 46.072L55.0884 46.0015Z" fill="white"/>
<path d="M55.0884 19.4037V46.0015L54.6969 46.0679L54.4094 46.1094V19.0633C54.4094 19.1536 54.4454 19.2401 54.5095 19.304C54.5735 19.3678 54.6604 19.4037 54.751 19.4037H55.0884Z" fill="white"/>
<path d="M55.0884 18.7229V19.4036H54.7551C54.6646 19.4036 54.5777 19.3678 54.5136 19.3039C54.4495 19.2401 54.4136 19.1535 54.4136 19.0633V14.2152C54.4119 14.1695 54.4195 14.1239 54.4359 14.0812C54.4523 14.0384 54.4772 13.9994 54.5091 13.9665C54.541 13.9335 54.5792 13.9073 54.6215 13.8895C54.6638 13.8716 54.7092 13.8624 54.7551 13.8624H55.0926V18.7105L55.0884 18.7229Z" fill="white"/>
<path d="M55.0884 12.7999V13.4889L54.8968 13.5304C54.8514 13.5439 54.8037 13.5479 54.7567 13.5421C54.7097 13.5363 54.6644 13.5208 54.6237 13.4966C54.583 13.4724 54.5478 13.4401 54.5203 13.4016C54.4929 13.3631 54.4738 13.3194 54.4642 13.2731C54.4546 13.2269 54.4548 13.1792 54.4648 13.133C54.4747 13.0868 54.4941 13.0432 54.5219 13.005C54.5497 12.9667 54.5851 12.9346 54.626 12.9107C54.6669 12.8869 54.7123 12.8717 54.7594 12.8663L55.0884 12.7999Z" fill="white"/>
<path d="M55.0884 7.27112V7.57413L54.7885 7.60733L54.0553 7.68619L52.5057 7.83977L51.7475 7.91448C50.9894 7.98505 50.2354 8.04731 49.4855 8.10957L48.7357 8.16768L48.3691 8.19674V7.83147C48.3699 7.74564 48.4027 7.66316 48.4613 7.60021C48.5199 7.53725 48.5999 7.49834 48.6857 7.49111C50.6686 7.34168 52.6973 7.1549 54.7135 6.93491C54.7607 6.9303 54.8084 6.93554 54.8535 6.9503C54.8986 6.96507 54.9401 6.98903 54.9753 7.02066C55.0106 7.05229 55.0389 7.0909 55.0584 7.13403C55.0778 7.17715 55.0881 7.22384 55.0884 7.27112Z" fill="white"/>
<path d="M54.7135 6.93486C56.9047 6.69827 59.1375 6.42017 61.3453 6.10471V4.94251L61.7244 4.89685L62.0243 4.8595V6.39111C62.0242 6.47267 61.9947 6.55147 61.9412 6.61317C61.8877 6.67488 61.8137 6.71539 61.7327 6.72732C59.5249 7.04278 57.2879 7.32502 55.0676 7.55746V7.25446C55.0673 7.20718 55.057 7.16049 55.0376 7.11736C55.0181 7.07424 54.9898 7.03563 54.9545 7.004C54.9193 6.97237 54.8778 6.94841 54.8327 6.93365C54.7876 6.91888 54.7399 6.91364 54.6927 6.91826L54.7135 6.93486Z" fill="white"/>
<path d="M54.4094 14.2152V7.63636L54.0553 7.67371L54.7885 7.59485L55.0884 7.56165V12.7874L54.7593 12.8538C54.7122 12.8593 54.6668 12.8744 54.6259 12.8983C54.5851 12.9222 54.5496 12.9542 54.5219 12.9925C54.4941 13.0308 54.4746 13.0744 54.4647 13.1205C54.4548 13.1667 54.4546 13.2144 54.4641 13.2607C54.4737 13.3069 54.4928 13.3506 54.5203 13.3891C54.5477 13.4276 54.5829 13.46 54.6236 13.4842C54.6643 13.5084 54.7096 13.5239 54.7566 13.5297C54.8037 13.5355 54.8514 13.5315 54.8968 13.5179L55.0884 13.4764V13.8624H54.7551C54.7089 13.8618 54.6629 13.8706 54.6202 13.8882C54.5774 13.9059 54.5387 13.932 54.5063 13.965C54.474 13.998 54.4487 14.0372 54.4321 14.0802C54.4154 14.1232 54.4077 14.1692 54.4094 14.2152Z" fill="white"/>
<path d="M49.4856 8.10956L49.0482 8.14276V13.0738C49.0285 13.0211 48.9956 12.9744 48.9525 12.938C48.9095 12.9017 48.8578 12.877 48.8024 12.8663L48.3859 12.7791V8.21333L48.7524 8.18427L49.4856 8.10956Z" fill="white"/>
<path d="M49.0482 13.0738C49.0738 13.134 49.0811 13.2004 49.069 13.2647C49.0646 13.2849 49.0576 13.3044 49.0482 13.3228V13.0738Z" fill="white"/>
<path d="M49.0482 19.0633V46.1094L48.7607 46.0679L48.3691 46.0015V19.4037H48.7107C48.8006 19.4026 48.8864 19.3662 48.9496 19.3025C49.0127 19.2388 49.0482 19.1528 49.0482 19.0633Z" fill="white"/>
<path d="M49.0482 14.2152V19.0633C49.0482 19.1528 49.0127 19.2388 48.9496 19.3025C48.8864 19.3662 48.8006 19.4025 48.7107 19.4036H48.3691V13.8624H48.7107C48.7563 13.863 48.8013 13.8726 48.8431 13.8907C48.8849 13.9088 48.9226 13.9351 48.9541 13.968C48.9855 14.0008 49.0101 14.0397 49.0262 14.0821C49.0424 14.1246 49.0498 14.1699 49.0482 14.2152Z" fill="white"/>
<path d="M49.0482 13.3229V14.2153C49.0482 14.1257 49.0127 14.0398 48.9496 13.9761C48.8864 13.9124 48.8006 13.876 48.7107 13.8749H48.3691V13.4599L48.6649 13.5221C48.7421 13.538 48.8223 13.5269 48.8922 13.4906C48.962 13.4543 49.0171 13.395 49.0482 13.3229Z" fill="white"/>
<path d="M49.0482 13.0738V13.3229C49.0186 13.3965 48.9641 13.4576 48.8941 13.4955C48.8241 13.5334 48.7431 13.5457 48.6649 13.5304L48.3691 13.4681V12.7791L48.7857 12.8663C48.8441 12.8743 48.8993 12.8978 48.9454 12.9343C48.9916 12.9708 49.0271 13.019 49.0482 13.0738Z" fill="white"/>
<path d="M48.6857 7.49109C48.5999 7.49833 48.5198 7.53723 48.4613 7.60019C48.4027 7.66315 48.3698 7.74562 48.3691 7.83145V8.19672C44.1618 8.51632 39.8961 8.7031 35.6887 8.75291V8.4167C35.6897 8.37186 35.6813 8.32731 35.6641 8.28587C35.6469 8.24442 35.6213 8.207 35.5888 8.17596C35.5578 8.14449 35.5209 8.11947 35.4801 8.10237C35.4393 8.08526 35.3956 8.07641 35.3513 8.07634C39.7586 8.05144 44.2576 7.8356 48.6857 7.49109Z" fill="white"/>
<path d="M48.6566 46.7361L48.1234 46.6448V53.3192H47.4402V46.238C47.44 46.1875 47.4516 46.1376 47.474 46.0922C47.4964 46.0469 47.529 46.0073 47.5693 45.9766C47.6071 45.9439 47.652 45.9206 47.7005 45.9083C47.749 45.8961 47.7996 45.8953 47.8484 45.906C48.0192 45.9434 48.1942 45.9766 48.3691 46.0056V46.4207C48.3739 46.498 48.4049 46.5714 48.4572 46.6288C48.5094 46.6861 48.5798 46.724 48.6566 46.7361Z" fill="white"/>
<path d="M48.3691 18.7229H18.172V19.3995H48.3691V18.7229Z" fill="white"/>
<path d="M48.3691 13.8624V14.5431H46.2863C46.3761 14.5421 46.4619 14.5057 46.5251 14.442C46.5883 14.3783 46.6237 14.2923 46.6237 14.2028V13.8624H48.3691Z" fill="white"/>
<path d="M48.3692 12.7791V13.4681L46.6029 13.107V13.8624H45.9239V12.6795C45.9238 12.6293 45.935 12.5799 45.9567 12.5346C45.9783 12.4894 46.0098 12.4495 46.0489 12.418C46.0876 12.3855 46.1333 12.3623 46.1823 12.3501C46.2314 12.3379 46.2827 12.337 46.3321 12.3474L48.3692 12.7791Z" fill="white"/>
<path d="M47.7818 53.9999H44.0993C44.0087 53.9999 43.9218 53.964 43.8577 53.9002C43.7937 53.8364 43.7577 53.7498 43.7577 53.6595C43.7577 53.5692 43.7937 53.4827 43.8577 53.4188C43.9218 53.355 44.0087 53.3192 44.0993 53.3192H47.4318V53.6595C47.4318 53.7049 47.4409 53.7499 47.4586 53.7917C47.4763 53.8336 47.5022 53.8714 47.5348 53.9032C47.5674 53.9349 47.6061 53.9598 47.6485 53.9764C47.6909 53.993 47.7362 54.001 47.7818 53.9999Z" fill="white"/>
<path d="M46.6028 13.8624V14.2028C46.6081 14.2504 46.6033 14.2985 46.5887 14.3441C46.574 14.3897 46.5499 14.4317 46.5178 14.4673C46.4858 14.503 46.4466 14.5315 46.4027 14.551C46.3589 14.5706 46.3114 14.5807 46.2633 14.5807C46.2153 14.5807 46.1678 14.5706 46.124 14.551C46.0801 14.5315 46.0409 14.503 46.0088 14.4673C45.9768 14.4317 45.9527 14.3897 45.938 14.3441C45.9234 14.2985 45.9185 14.2504 45.9238 14.2028V13.8624H46.6028Z" fill="white"/>
<path d="M46.2654 14.5556H35.3513C35.4412 14.5545 35.527 14.5182 35.5902 14.4545C35.6533 14.3907 35.6887 14.3048 35.6887 14.2152V13.8624H45.9239V14.2028C45.9222 14.2485 45.9298 14.2941 45.9462 14.3369C45.9626 14.3796 45.9875 14.4186 46.0194 14.4515C46.0513 14.4845 46.0895 14.5107 46.1318 14.5286C46.1741 14.5464 46.2195 14.5556 46.2654 14.5556Z" fill="white"/>
<path d="M44.7783 6.34963C46.5168 6.26108 48.2525 6.15593 49.9854 6.03418C48.2525 6.1587 46.5168 6.26385 44.7783 6.34963Z" fill="white"/>
<path d="M39.5504 6.54885C41.2972 6.50457 43.0398 6.43816 44.7783 6.34961C43.037 6.43816 41.2944 6.50457 39.5504 6.54885Z" fill="white"/>
<path d="M35.6887 13.8624V14.2028C35.6888 14.2923 35.6533 14.3783 35.5902 14.442C35.527 14.5057 35.4412 14.5421 35.3513 14.5431H31.1856C31.0951 14.5431 31.0082 14.5073 30.9441 14.4435C30.88 14.3796 30.8441 14.2931 30.8441 14.2028V13.8624H35.6804H35.6887Z" fill="white"/>
<path d="M35.6888 8.75293V13.8625H35.0098V8.76123H34.4266H35.3513L35.6888 8.75293Z" fill="white"/>
<path d="M35.6888 8.41672V8.75292H35.3514H34.4266H32.1188H31.1898H30.8524V8.41672C30.8524 8.32716 30.8878 8.24121 30.951 8.1775C31.0142 8.11379 31.1 8.07745 31.1898 8.07635C32.5645 8.07635 33.96 8.07635 35.3555 8.07635C35.3998 8.07643 35.4435 8.08528 35.4843 8.10238C35.5251 8.11948 35.562 8.1445 35.593 8.17597C35.6247 8.20737 35.6496 8.24496 35.6661 8.28638C35.6826 8.3278 35.6903 8.37218 35.6888 8.41672Z" fill="white"/>
<path d="M33.2727 6.6319C34.6612 6.6319 36.0567 6.61945 37.4592 6.59454C34.6682 6.64435 31.8758 6.64435 29.082 6.59454C30.4775 6.61945 31.8772 6.6319 33.2727 6.6319Z" fill="white"/>
<path d="M32.1188 8.76538H31.5314V13.8625H30.8524V8.75293H31.1898L32.1188 8.76538Z" fill="white"/>
<path d="M31.194 14.5556H20.3632C20.4538 14.5556 20.5406 14.5197 20.6047 14.4559C20.6688 14.3921 20.7047 14.3055 20.7047 14.2152V13.8624H30.8607V14.2028C30.859 14.2478 30.8664 14.2928 30.8823 14.3349C30.8982 14.3771 30.9223 14.4158 30.9533 14.4486C30.9843 14.4814 31.0216 14.5078 31.0629 14.5262C31.1042 14.5445 31.1487 14.5545 31.194 14.5556Z" fill="white"/>
<path d="M31.1898 8.07634C31.0999 8.07743 31.0141 8.11378 30.9509 8.17749C30.8878 8.2412 30.8524 8.32715 30.8524 8.4167V8.75291C26.645 8.7031 22.3793 8.51632 18.172 8.19672V7.83145C18.1714 7.74627 18.1391 7.66434 18.0814 7.60149C18.0237 7.53863 17.9447 7.4993 17.8596 7.49109C22.2835 7.8356 26.7658 8.05144 31.1898 8.07634Z" fill="white"/>
<path d="M22.4544 53.3192C22.4992 53.3192 22.5437 53.328 22.5851 53.3451C22.6265 53.3622 22.6642 53.3872 22.6959 53.4188C22.7276 53.4504 22.7528 53.488 22.77 53.5293C22.7871 53.5706 22.796 53.6148 22.796 53.6595C22.796 53.7042 22.7871 53.7485 22.77 53.7898C22.7528 53.8311 22.7276 53.8686 22.6959 53.9002C22.6642 53.9318 22.6265 53.9569 22.5851 53.974C22.5437 53.9911 22.4992 53.9999 22.4544 53.9999H18.7594C18.85 53.9999 18.9369 53.964 19.0009 53.9002C19.065 53.8364 19.101 53.7498 19.101 53.6595V53.3192H22.4544Z" fill="white"/>
<path d="M20.6965 13.8624V14.2028C20.6965 14.2931 20.6605 14.3796 20.5964 14.4435C20.5324 14.5073 20.4455 14.5431 20.3549 14.5431C20.265 14.5421 20.1792 14.5057 20.116 14.442C20.0529 14.3783 20.0174 14.2923 20.0175 14.2028V13.8624H20.6965Z" fill="white"/>
<path d="M20.6964 12.6919V13.8624H20.0174V13.0945L18.172 13.4722V12.7832L20.2882 12.3474C20.3377 12.337 20.3889 12.3379 20.438 12.3501C20.4871 12.3623 20.5327 12.3855 20.5714 12.418C20.6122 12.4508 20.6447 12.4927 20.6664 12.5402C20.6881 12.5878 20.6984 12.6397 20.6964 12.6919Z" fill="white"/>
<path d="M20.3548 14.5556H18.172V13.8624H20.0174V14.2028C20.0157 14.2482 20.0232 14.2934 20.0394 14.3359C20.0555 14.3784 20.08 14.4172 20.1115 14.4501C20.1429 14.4829 20.1806 14.5092 20.2224 14.5273C20.2642 14.5455 20.3093 14.5551 20.3548 14.5556Z" fill="white"/>
<path d="M19.101 53.3192V53.6595C19.101 53.7498 19.065 53.8364 19.0009 53.9002C18.9369 53.964 18.85 53.9999 18.7594 53.9999H10.8654C10.7748 53.9999 10.6879 53.964 10.6239 53.9002C10.5598 53.8364 10.5238 53.7498 10.5238 53.6595V53.3192H19.101Z" fill="white"/>
<path d="M19.101 46.238V53.3233H18.422V46.6531L17.8888 46.7444C17.9679 46.73 18.0394 46.6885 18.0911 46.6271C18.1428 46.5657 18.1714 46.4883 18.1721 46.4082V45.9932L18.6928 45.8935C18.7423 45.8831 18.7935 45.884 18.8426 45.8963C18.8917 45.9085 18.9373 45.9317 18.976 45.9641C19.0168 45.9969 19.0493 46.0388 19.071 46.0864C19.0927 46.1339 19.103 46.1859 19.101 46.238Z" fill="white"/>
<path d="M18.172 46.0015V46.4165C18.1714 46.4967 18.1428 46.5741 18.0911 46.6354C18.0394 46.6968 17.9678 46.7383 17.8888 46.7527C15.8529 47.0682 13.7803 47.0682 11.7444 46.7527C11.6638 46.7407 11.5903 46.7001 11.5375 46.6383C11.4846 46.5765 11.456 46.4977 11.4569 46.4165V46.0015L11.8485 46.0679L12.1359 46.1094H12.1568L12.4192 46.1426H12.4942L12.69 46.1675L12.8941 46.1883H13.0649H13.1857L13.4731 46.2132L13.8105 46.2339H14.1438H14.4812H15.1519H15.4893H15.8226L16.1558 46.2132L16.4308 46.2381H16.5557H16.7224L16.939 46.2132L17.114 46.1924H17.2222L17.4514 46.1633H17.4847L17.7721 46.1218L18.172 46.0015Z" fill="white"/>
<path d="M18.172 19.4037V46.0015L17.7804 46.0679L17.493 46.1094V19.0633C17.493 19.1528 17.5284 19.2388 17.5916 19.3025C17.6547 19.3662 17.7405 19.4026 17.8304 19.4037H18.172Z" fill="white"/>
<path d="M18.172 18.7229V19.4036H17.8304C17.7405 19.4025 17.6547 19.3662 17.5916 19.3025C17.5284 19.2388 17.493 19.1528 17.493 19.0633V14.2152C17.493 14.1257 17.5284 14.0397 17.5916 13.976C17.6547 13.9123 17.7405 13.876 17.8304 13.8749H18.172V18.7229Z" fill="white"/>
<path d="M18.172 12.7957V13.4847L17.9512 13.5304C17.9063 13.542 17.8594 13.5442 17.8136 13.5369C17.7677 13.5297 17.7239 13.513 17.6848 13.4881C17.6457 13.4632 17.6122 13.4304 17.5864 13.392C17.5605 13.3536 17.5429 13.3103 17.5347 13.2647C17.5326 13.2427 17.5326 13.2204 17.5347 13.1983C17.5349 13.1205 17.5619 13.045 17.6111 12.9846C17.6604 12.9242 17.729 12.8824 17.8054 12.8663L18.172 12.7957Z" fill="white"/>
<path d="M18.172 7.83147V8.19674L17.8054 8.16768L17.0556 8.10957C16.3058 8.04731 15.5518 7.98505 14.7937 7.91448L14.0355 7.83977L12.4859 7.68619L11.7527 7.60733L11.4528 7.57413V7.27112C11.4531 7.22384 11.4634 7.17715 11.4828 7.13403C11.5023 7.0909 11.5306 7.05229 11.5658 7.02066C11.6011 6.98903 11.6426 6.96507 11.6877 6.9503C11.7328 6.93554 11.7805 6.9303 11.8277 6.93491C13.848 7.1549 15.8767 7.34998 17.8596 7.49111C17.9447 7.49932 18.0237 7.53865 18.0814 7.60151C18.1391 7.66436 18.1714 7.74629 18.172 7.83147Z" fill="white"/>
<path d="M16.5557 6.03418C18.2887 6.1587 20.0258 6.26385 21.767 6.34963C20.0258 6.26662 18.2887 6.16147 16.5557 6.03418Z" fill="white"/>
<path d="M17.5513 13.2647C17.5596 13.3102 17.5772 13.3536 17.603 13.392C17.6288 13.4304 17.6624 13.4631 17.7015 13.4881C17.7406 13.513 17.7844 13.5296 17.8302 13.5369C17.8761 13.5442 17.9229 13.542 17.9679 13.5304L18.1887 13.4847V13.8624H17.8471C17.7572 13.8635 17.6714 13.8999 17.6082 13.9636C17.5451 14.0273 17.5096 14.1132 17.5096 14.2028V13.1983H17.5596C17.5548 13.2201 17.552 13.2424 17.5513 13.2647Z" fill="white"/>
<path d="M17.0556 8.10956L17.8054 8.16767L18.172 8.19673V12.7957L17.8138 12.8663C17.7373 12.8824 17.6687 12.9242 17.6195 12.9846C17.5702 13.045 17.5432 13.1205 17.543 13.1983H17.493V8.14276L17.0556 8.10956Z" fill="white"/>
<path d="M12.4858 7.68616L12.1317 7.64881V13.1983C12.1315 13.1205 12.1045 13.045 12.0553 12.9846C12.006 12.9242 11.9374 12.8824 11.861 12.8663L11.4444 12.7832V7.5741L11.7443 7.6073L12.4858 7.68616Z" fill="white"/>
<path d="M12.1318 19.0633V46.1094L11.8443 46.0679L11.4528 46.0015V19.4037H11.7902C11.8808 19.4037 11.9677 19.3678 12.0317 19.304C12.0958 19.2401 12.1318 19.1536 12.1318 19.0633Z" fill="white"/>
<path d="M12.1318 14.2152V19.0633C12.1318 19.1535 12.0958 19.2401 12.0317 19.3039C11.9677 19.3678 11.8808 19.4036 11.7902 19.4036H11.4528V13.8624H11.7902C11.8361 13.8624 11.8816 13.8716 11.9239 13.8895C11.9661 13.9073 12.0044 13.9335 12.0362 13.9665C12.0681 13.9994 12.093 14.0384 12.1094 14.0812C12.1259 14.1239 12.1334 14.1695 12.1318 14.2152Z" fill="white"/>
<path d="M12.1318 13.1983V14.2152C12.1318 14.125 12.0958 14.0384 12.0317 13.9746C11.9677 13.9107 11.8808 13.8749 11.7902 13.8749H11.4528V13.4598L11.7235 13.5179C11.7685 13.5295 11.8153 13.5317 11.8612 13.5244C11.907 13.5172 11.9509 13.5005 11.99 13.4756C12.0291 13.4507 12.0626 13.418 12.0884 13.3795C12.1142 13.3411 12.1318 13.2978 12.1401 13.2523C12.1387 13.2341 12.1359 13.2161 12.1318 13.1983Z" fill="white"/>
<path d="M12.1317 13.1983C12.1338 13.2204 12.1338 13.2427 12.1317 13.2647C12.1235 13.3103 12.1059 13.3536 12.08 13.392C12.0542 13.4304 12.0207 13.4632 11.9816 13.4881C11.9425 13.513 11.8986 13.5297 11.8528 13.5369C11.807 13.5442 11.7601 13.542 11.7152 13.5304L11.4444 13.4723V12.7833L11.861 12.8663C11.9374 12.8824 12.006 12.9242 12.0553 12.9846C12.1045 13.045 12.1315 13.1205 12.1317 13.1983Z" fill="white"/>
<path d="M11.5653 7.02208C11.5292 7.05274 11.5004 7.09097 11.481 7.13403C11.4615 7.17709 11.4519 7.22391 11.4528 7.27112V7.57413C9.25747 7.33754 7.02049 7.05529 4.80851 6.74399C4.72754 6.73205 4.65357 6.69154 4.60005 6.62984C4.54653 6.56813 4.51702 6.48933 4.51691 6.40777V4.86786L4.81684 4.90521L5.19592 4.95087V6.11307C7.4079 6.42438 9.63655 6.70248 11.8277 6.94322C11.7808 6.93652 11.7331 6.9401 11.6877 6.95373C11.6424 6.96735 11.6006 6.99068 11.5653 7.02208Z" fill="white"/>
<path d="M11.4527 46.3999C11.4518 46.4811 11.4805 46.5599 11.5333 46.6217C11.5861 46.6835 11.6596 46.7241 11.7402 46.7361L11.2028 46.6448V53.3192H10.5238V46.238C10.5238 46.1879 10.535 46.1384 10.5566 46.0932C10.5782 46.048 10.6097 46.0081 10.6488 45.9765C10.6875 45.9441 10.7332 45.9209 10.7822 45.9087C10.8313 45.8965 10.8825 45.8956 10.932 45.906C11.1028 45.9434 11.2736 45.9766 11.4527 46.0056V46.3999Z" fill="white"/>
<path d="M11.4528 18.7229V19.4036H4.8585C4.7679 19.4036 4.68102 19.3678 4.61696 19.3039C4.5529 19.2401 4.51691 19.1535 4.51691 19.0633V14.2152C4.51691 14.125 4.5529 14.0384 4.61696 13.9746C4.68102 13.9107 4.7679 13.8749 4.8585 13.8749H8.98253V14.2152C8.98253 14.3048 9.01794 14.3907 9.08111 14.4544C9.14427 14.5182 9.23008 14.5545 9.31995 14.5556H5.18342V18.7063L11.4528 18.7229Z" fill="white"/>
<path d="M11.4527 13.8624V14.5431H9.31989C9.41048 14.5431 9.49737 14.5073 9.56143 14.4435C9.62549 14.3796 9.66148 14.2931 9.66148 14.2028V13.8624H11.4527Z" fill="white"/>
<path d="M11.4527 12.7833V13.4723L9.66149 13.107V13.8625H8.98248V12.6795C8.9825 12.6298 8.99331 12.5807 9.01416 12.5356C9.03502 12.4904 9.06542 12.4503 9.10329 12.418C9.14219 12.3859 9.18783 12.3628 9.23686 12.3506C9.28589 12.3384 9.33705 12.3373 9.38656 12.3474L11.4527 12.7833Z" fill="white"/>
<path d="M10.8654 53.9999H7.03294C6.94234 53.9999 6.85545 53.964 6.79139 53.9002C6.72733 53.8364 6.69135 53.7498 6.69135 53.6595C6.69135 53.5692 6.72733 53.4827 6.79139 53.4188C6.85545 53.355 6.94234 53.3192 7.03294 53.3192H10.5238V53.6595C10.5238 53.7498 10.5598 53.8364 10.6238 53.9002C10.6879 53.964 10.7748 53.9999 10.8654 53.9999Z" fill="white"/>
<path d="M9.66149 13.8624V14.2028C9.66149 14.2931 9.6255 14.3796 9.56144 14.4435C9.49738 14.5073 9.4105 14.5431 9.3199 14.5431C9.23003 14.5421 9.14422 14.5057 9.08106 14.442C9.0179 14.3783 8.98248 14.2923 8.98248 14.2028V13.8624H9.66149Z" fill="white"/>
<path d="M61.6452 4.22861C62.2951 4.14975 62.9907 4.06259 63.7614 3.95882L65.3235 0.800121C45.1949 4.60218 21.3463 4.60218 1.21766 0.800121L2.7798 3.95882C3.55462 4.06259 4.24612 4.14975 4.89597 4.22861C4.84878 4.22217 4.80075 4.22627 4.75535 4.24063C4.70996 4.25499 4.66834 4.27925 4.63353 4.31163C4.5964 4.34252 4.56666 4.38128 4.54648 4.42508C4.5263 4.46889 4.51619 4.51663 4.51689 4.56483V4.86368C3.90036 4.78897 3.23802 4.7018 2.50902 4.60633C2.45403 4.59999 2.40154 4.57993 2.35639 4.548C2.31125 4.51608 2.27491 4.47333 2.25075 4.4237L0.305376 0.488817C0.278558 0.431521 0.26788 0.368036 0.274484 0.305159C0.281088 0.242281 0.304723 0.182378 0.342865 0.131855C0.381562 0.0825856 0.433143 0.0448992 0.491934 0.0229317C0.550726 0.000964204 0.614447 -0.00443563 0.676116 0.00733229C21.088 3.96297 45.4573 3.96297 65.8651 0.00733229C65.9274 -0.00585609 65.9922 -0.0011858 66.052 0.0207973C66.1118 0.0427804 66.1641 0.0811776 66.2029 0.131551C66.2417 0.181925 66.2653 0.242212 66.2712 0.305437C66.277 0.368663 66.2647 0.432243 66.2358 0.488817L64.2946 4.4237C64.2689 4.47296 64.2316 4.5153 64.1859 4.5471C64.1402 4.5789 64.0875 4.59922 64.0322 4.60633C63.3032 4.7018 62.6408 4.78897 62.0243 4.86368V4.56483C62.0247 4.51709 62.0149 4.46981 61.9955 4.42615C61.9761 4.3825 61.9475 4.34346 61.9118 4.31163C61.8761 4.2794 61.8337 4.25528 61.7877 4.24095C61.7416 4.22662 61.693 4.22241 61.6452 4.22861Z" fill="white"/>
<path d="M11.4486 14.5515H5.19586V15.6514H11.4486V14.5515Z" fill="#CE0000"/>
<path d="M48.3691 14.5515H18.172V15.6514H48.3691V14.5515Z" fill="#CE0000"/>
<path d="M61.3452 14.5515H55.0884V15.6514H61.3452V14.5515Z" fill="#CE0000"/>
<path d="M6.85798 14.5515H5.19586V18.7229H6.85798V14.5515Z" fill="#CE0000"/>
<path d="M61.3453 14.5515H59.6832V18.7229H61.3453V14.5515Z" fill="#CE0000"/>
<path d="M48.3692 14.5515H46.707V18.7229H48.3692V14.5515Z" fill="#CE0000"/>
<path d="M19.8341 14.5515H18.172V18.7229H19.8341V14.5515Z" fill="#CE0000"/>
<path d="M49.0482 16.0125V16.2657C49.0576 16.2473 49.0646 16.2278 49.069 16.2076C49.0809 16.1419 49.0737 16.0742 49.0482 16.0125Z" fill="#CE0000"/>
<path d="M54.0553 7.68616L52.5057 7.83974L51.7475 7.91445C50.9894 7.98501 50.2354 8.04727 49.4855 8.10953L49.0482 8.14274V11.0856L49.4855 11.0524L51.7475 10.8532L52.5057 10.7826L54.0553 10.629L54.4094 10.5917V7.63635L54.0553 7.68616Z" fill="#CE0000"/>
<path d="M17.0556 8.10953C16.3057 8.04727 15.5518 7.98501 14.7936 7.91445L14.0354 7.83974L12.4858 7.68616L12.1317 7.6488V10.6705L12.4858 10.7079L14.0354 10.8615L14.7936 10.9362C15.5518 11.0067 16.3057 11.069 17.0556 11.1313L17.493 11.1645V8.14274L17.0556 8.10953Z" fill="#CE0000"/>
<path d="M12.1317 41.4772H17.493V46.1094H17.4596L17.2305 46.1384H17.1222L16.9473 46.1592L16.7306 46.1841H16.564H16.439L16.1516 46.209L15.8184 46.2298H15.4851H15.1477H14.477H14.1396H13.8063L13.4689 46.209L13.1815 46.1841H13.0607H12.8899L12.6858 46.1633L12.49 46.1384H12.415L12.1525 46.1052H12.1317V41.4772Z" fill="#CE0000"/>
<path d="M54.4094 41.4772V46.1094H54.3802L54.1511 46.1384C54.1137 46.1405 54.0761 46.1405 54.0387 46.1384L53.8679 46.1592L53.6512 46.1841H53.4804H53.3596L53.0889 46.238L52.7556 46.2588H52.4182H52.0808H51.4101H51.0768H50.7394L50.4062 46.238L50.1187 46.2131H49.9938H49.8271L49.6188 46.1924L49.4272 46.1675H49.3523L49.0898 46.1343H49.0648V41.4772H54.4094Z" fill="#CE0000"/>
<g opacity="0.73">
<path d="M12.8899 22.3175C12.8255 22.3164 12.764 22.2901 12.7188 22.2443C12.6736 22.1985 12.6483 22.1368 12.6483 22.0726V19.0633C12.6483 18.9995 12.6738 18.9382 12.7191 18.8931C12.7644 18.8479 12.8258 18.8226 12.8899 18.8226C12.954 18.8226 13.0155 18.8479 13.0608 18.8931C13.1061 18.9382 13.1315 18.9995 13.1315 19.0633V22.0726C13.1315 22.1368 13.1062 22.1985 13.061 22.2443C13.0158 22.2901 12.9544 22.3164 12.8899 22.3175Z" fill="white"/>
</g>
<g opacity="0.73">
<path d="M12.8899 25.0694C12.8255 25.0683 12.764 25.042 12.7188 24.9962C12.6736 24.9504 12.6483 24.8887 12.6483 24.8245V23.1352C12.6483 23.0713 12.6738 23.0101 12.7191 22.9649C12.7644 22.9198 12.8258 22.8944 12.8899 22.8944C12.954 22.8944 13.0155 22.9198 13.0608 22.9649C13.1061 23.0101 13.1315 23.0713 13.1315 23.1352V24.8245C13.1315 24.8887 13.1062 24.9504 13.061 24.9962C13.0158 25.042 12.9544 25.0683 12.8899 25.0694Z" fill="white"/>
</g>
<g opacity="0.73">
<path d="M53.3139 36.3178C53.2498 36.3178 53.1883 36.2925 53.143 36.2473C53.0977 36.2022 53.0723 36.1409 53.0723 36.0771V33.0678C53.0723 33.0362 53.0785 33.0049 53.0906 32.9757C53.1028 32.9465 53.1206 32.9199 53.143 32.8976C53.1655 32.8752 53.1921 32.8575 53.2214 32.8454C53.2507 32.8333 53.2821 32.8271 53.3139 32.8271C53.3456 32.8271 53.377 32.8333 53.4063 32.8454C53.4356 32.8575 53.4623 32.8752 53.4847 32.8976C53.5072 32.9199 53.525 32.9465 53.5371 32.9757C53.5492 33.0049 53.5555 33.0362 53.5555 33.0678V36.0771C53.5555 36.1409 53.53 36.2022 53.4847 36.2473C53.4394 36.2925 53.3779 36.3178 53.3139 36.3178Z" fill="white"/>
</g>
<g opacity="0.73">
<path d="M53.3139 39.0781C53.2498 39.0781 53.1883 39.0527 53.143 39.0075C53.0977 38.9624 53.0723 38.9012 53.0723 38.8373V37.148C53.0723 37.1164 53.0785 37.0851 53.0906 37.0558C53.1028 37.0266 53.1206 37.0001 53.143 36.9777C53.1655 36.9554 53.1921 36.9377 53.2214 36.9256C53.2507 36.9135 53.2821 36.9072 53.3139 36.9072C53.3456 36.9072 53.377 36.9135 53.4063 36.9256C53.4356 36.9377 53.4623 36.9554 53.4847 36.9777C53.5072 37.0001 53.525 37.0266 53.5371 37.0558C53.5492 37.0851 53.5555 37.1164 53.5555 37.148V38.8373C53.5555 38.9012 53.53 38.9624 53.4847 39.0075C53.4394 39.0527 53.3779 39.0781 53.3139 39.0781Z" fill="white"/>
</g>
<path opacity="0.21" d="M39.8753 14.5058H26.5784V18.6773H39.8753V14.5058Z" fill="white"/>
</svg>
