<svg width="77" height="63" viewBox="0 0 77 63" fill="none" xmlns="http://www.w3.org/2000/svg">
<path d="M23.0307 15.2915V16.1874H20.8826V15.7322L23.0307 15.2915Z" fill="#CE0000"/>
<path d="M13.0435 15.7176V16.1874H10.9537V15.2915L13.0435 15.7176Z" fill="#CE0000"/>
<path d="M56.1126 15.7128V16.1874H54.052V15.2915L56.1126 15.7128Z" fill="#CE0000"/>
<path d="M66.1339 15.2915V16.1874H63.9518V15.737L66.1339 15.2915Z" fill="#CE0000"/>
<path d="M71.2514 16.9767H63.9518V21.8434H71.2514V16.9767Z" fill="#CE0000"/>
<path d="M64.2434 54.4286V62.2154H55.8259V54.4286L56.448 54.5352C58.8232 54.9032 61.2412 54.9032 63.6165 54.5352L64.2434 54.4286Z" fill="#662424"/>
<path d="M63.6261 54.5255C63.0527 54.6175 62.4695 54.6853 61.8911 54.7289V62.2057H64.2531V54.4286L63.6261 54.5255Z" fill="#915151"/>
<path d="M21.1743 54.4286V62.2154H12.752V54.4286L13.3789 54.5352C15.7541 54.9032 18.1721 54.9032 20.5473 54.5352L21.1743 54.4286Z" fill="#662424"/>
<path d="M13.3789 54.5255L12.752 54.4189V62.2057H14.798V54.6998C14.3217 54.6562 13.8503 54.5981 13.3789 54.5255Z" fill="#915151"/>
<path d="M13.0387 16.9767H5.74384V21.8434H13.0387V16.9767Z" fill="#CE0000"/>
<path d="M20.0905 9.49984V53.7942H20.0516L19.7843 53.8281H19.658L19.4538 53.8524L19.2011 53.8814H19.0067H18.8609L18.5256 53.9105L18.1368 53.9347H17.748H17.3543H16.5719H16.1782H15.7894L15.3958 53.9105L15.0604 53.8814H14.9195H14.7202L14.4821 53.8572L14.2537 53.8281H14.1662L13.86 53.7894H13.8357V8.90906L14.2488 8.95264L16.0567 9.13182L16.9412 9.21898C17.8257 9.3013 18.7054 9.37394 19.5802 9.44658L20.0905 9.49984Z" fill="#CE0000"/>
<path d="M17.8015 53.9831L17.3933 53.9444L17.0628 53.9153H16.917H16.7177L16.4796 53.8911L16.2512 53.862H16.1685L15.8624 53.8233H15.8332V9.12697L14.2343 8.96716L13.8212 8.92358V53.7942H13.8455L14.1516 53.833H14.2391L14.4676 53.862L14.7057 53.8863H14.9049H15.0459L15.3812 53.9153L15.7749 53.9395H16.1637H16.5573H17.3398H17.7335H17.9521L17.8015 53.9831Z" fill="#CE0000"/>
<path d="M75.8927 0.933472L74.0702 4.61862C73.1711 4.73968 72.3595 4.84137 71.6014 4.93338C69.6088 5.1755 67.5724 5.41763 65.5458 5.60165C62.9992 5.8583 60.4429 6.0859 57.94 6.25539C54.052 6.5298 50.164 6.7235 46.276 6.83649C41.092 6.98176 35.921 6.98176 30.763 6.83649C26.8556 6.72672 22.9595 6.53303 19.0747 6.25539C16.5767 6.07622 14.0155 5.8583 11.464 5.60165C9.44225 5.39826 7.41078 5.1755 5.41818 4.93338C4.66003 4.84137 3.85328 4.73968 2.94932 4.61862L1.12683 0.933472C10.9141 2.73921 20.8242 3.80598 30.7727 4.12468C35.9291 4.30385 41.1245 4.30385 46.2857 4.12468C56.2212 3.80429 66.1183 2.73753 75.8927 0.933472Z" fill="#77453E"/>
<path d="M75.2707 2.18768L75.8928 0.933472C52.4094 5.36921 24.586 5.36921 1.1026 0.933472L1.72468 2.18768C24.8679 6.48782 52.1275 6.48782 75.2707 2.18768Z" fill="#77453E"/>
<path d="M71.2515 5.77118V7.12708C68.6757 7.49027 66.0708 7.81472 63.5144 8.09558C61.1622 8.35224 58.7953 8.57983 56.482 8.74448C51.3158 9.14641 46.0865 9.37885 40.9301 9.42727C39.3214 9.42727 37.6933 9.42727 36.0701 9.42727C30.9088 9.37885 25.6795 9.14641 20.5182 8.74448C18.2048 8.57015 15.838 8.35224 13.4809 8.09558C10.9246 7.81956 8.32448 7.49511 5.74384 7.12708V5.77118L6.48255 5.85834L7.14351 5.93582L8.54804 6.09563L9.84566 6.23122L10.4774 6.29901L11.3668 6.39102C13.928 6.64283 16.4941 6.87527 18.997 7.03991C21.0187 7.18519 23.0454 7.30786 25.0768 7.40794C27.1083 7.50802 29.1398 7.58551 31.1712 7.64039L33.6012 7.69365C36.8574 7.75176 40.1152 7.75176 43.3747 7.69365L45.8046 7.64039C47.8426 7.58873 49.8757 7.51125 51.9039 7.40794C53.9321 7.30463 55.9571 7.18196 57.9789 7.03991C60.4866 6.86558 63.0527 6.64283 65.6091 6.39102L66.479 6.29901L67.1302 6.23122C68.1476 6.12468 69.1617 6.0133 70.1725 5.89708L70.746 5.82929L71.2515 5.77118Z" fill="#CE0000"/>
<path d="M40.5267 10.2214V16.1729H36.4686V10.2214H40.5267Z" fill="#CE0000"/>
<path d="M40.5267 10.2214V16.1729H36.4686V10.2214H40.5267Z" fill="#CE0000"/>
<path d="M39.8463 10.2263H36.4443V12.1294H40.5024V10.2263H39.8463Z" fill="#CE0000"/>
<path d="M56.1126 16.9767H20.8826V21.8434H56.1126V16.9767Z" fill="#CE0000"/>
<path d="M63.1596 8.90906V53.7797H63.1256L62.8583 53.8136C62.8146 53.816 62.7708 53.816 62.7271 53.8136L62.5278 53.8378L62.2751 53.8669H62.0758H61.9349L61.619 53.9444L61.2302 53.9686H60.8365H60.4429H59.6604H59.2716H58.8779L58.4892 53.9444L58.1538 53.9153H58.008H57.8136L57.5706 53.8911L57.3471 53.862H57.2596L56.9534 53.8233H56.9243V15.5675C56.9352 15.546 56.9434 15.5233 56.9485 15.4997C56.9626 15.4247 56.9542 15.3472 56.9243 15.2769V9.49984L57.4345 9.4611C58.3093 9.38847 59.189 9.31583 60.0735 9.2335L60.958 9.14634L62.7659 8.96717L63.1596 8.90906Z" fill="#CE0000"/>
<path d="M62.7465 8.96717L60.9386 9.14634L60.0541 9.2335C59.1696 9.31583 58.2899 9.38847 57.4151 9.4611L56.9048 9.49984V9.66933L57.8136 9.58701L58.6981 9.50468L60.506 9.32551L60.9191 9.28193V53.9928H61.2107L61.5995 53.9686L61.9349 53.9395H62.0758H62.2751L62.5278 53.9105L62.7271 53.8863C62.7708 53.8886 62.8146 53.8886 62.8583 53.8863L63.1256 53.8524H63.1596V8.90906L62.7465 8.96717Z" fill="#CE0000"/>
<path d="M72.0437 16.5844V22.2405C72.0437 22.345 72.0023 22.4452 71.9287 22.5196C71.855 22.5939 71.7548 22.6363 71.65 22.6376H63.9518V21.8434H71.2417V17.0009H66.5227C66.6276 16.9996 66.7277 16.9572 66.8014 16.8829C66.8751 16.8086 66.9164 16.7083 66.9164 16.6038V16.1728H71.6403C71.6943 16.1721 71.7478 16.1824 71.7977 16.2029C71.8476 16.2235 71.8928 16.254 71.9305 16.2925C71.9682 16.331 71.9977 16.3767 72.0172 16.4269C72.0366 16.4771 72.0456 16.5307 72.0437 16.5844Z" fill="white"/>
<path d="M72.0436 5.32564V5.6743L71.6937 5.71788L71.2514 5.77114L70.7654 5.82925L70.1919 5.89705C69.1811 6.01327 68.167 6.12465 67.1496 6.23118L66.4984 6.29898L65.6284 6.39098C63.0721 6.6428 60.506 6.87523 57.9983 7.03988C55.9765 7.18515 53.9515 7.30783 51.9233 7.40791C49.8951 7.50798 47.862 7.58547 45.824 7.64035L43.394 7.69362C41.774 7.72268 40.146 7.7372 38.5098 7.7372C36.8817 7.7372 35.2487 7.7372 33.6206 7.69362L31.1906 7.64035C29.1559 7.5887 27.1244 7.51121 25.0962 7.40791C23.068 7.3046 21.0414 7.18193 19.0164 7.03988C16.5135 6.86555 13.9474 6.6428 11.3862 6.39098L10.4968 6.29898L9.86505 6.23118L8.56743 6.09559L7.1629 5.93579L6.50194 5.85831L5.76323 5.77114L5.32097 5.71788L4.97105 5.6743V5.32564C4.97023 5.26941 4.98202 5.21371 5.00556 5.1626C5.0291 5.1115 5.06381 5.06628 5.10713 5.03024C5.14774 4.99246 5.1963 4.96416 5.24926 4.94741C5.30222 4.93066 5.35826 4.92587 5.41331 4.93339C7.4059 5.17551 9.43737 5.41764 11.4591 5.60165C14.0106 5.85831 16.5718 6.08591 19.0698 6.2554C32.0132 7.18008 45.0063 7.18008 57.9497 6.2554C60.4526 6.07622 63.0089 5.85831 65.5555 5.60165C67.5821 5.39827 69.6185 5.17551 71.6111 4.93339C71.6668 4.92614 71.7236 4.93106 71.7773 4.94778C71.831 4.9645 71.8804 4.99264 71.9221 5.03024C71.962 5.06824 71.9934 5.11417 72.0144 5.16506C72.0353 5.21595 72.0453 5.27066 72.0436 5.32564Z" fill="white"/>
<path d="M69.1277 62.2057C69.2334 62.2057 69.3347 62.2475 69.4095 62.322C69.4842 62.3965 69.5262 62.4975 69.5262 62.6028C69.5262 62.7081 69.4842 62.8091 69.4095 62.8836C69.3347 62.958 69.2334 62.9999 69.1277 62.9999H64.6419C64.7468 62.9986 64.8469 62.9562 64.9206 62.8819C64.9943 62.8075 65.0356 62.7073 65.0356 62.6028V62.2057H69.1277Z" fill="white"/>
<path d="M66.9261 16.1729V16.5699C66.9323 16.6254 66.9267 16.6816 66.9096 16.7348C66.8925 16.788 66.8644 16.837 66.827 16.8786C66.7896 16.9202 66.7438 16.9535 66.6927 16.9762C66.6415 16.999 66.5861 17.0108 66.53 17.0108C66.474 17.0108 66.4186 16.999 66.3674 16.9762C66.3163 16.9535 66.2705 16.9202 66.2331 16.8786C66.1957 16.837 66.1676 16.788 66.1505 16.7348C66.1334 16.6816 66.1278 16.6254 66.134 16.5699V16.1729H66.9261Z" fill="white"/>
<path d="M66.9261 14.8072V16.1728H66.1339V15.2769L63.9518 15.7225V14.9186L66.4498 14.4053C66.5076 14.3931 66.5673 14.3942 66.6246 14.4085C66.6819 14.4227 66.7351 14.4498 66.7803 14.4876C66.8278 14.5259 66.8658 14.5748 66.8911 14.6303C66.9164 14.6857 66.9284 14.7463 66.9261 14.8072Z" fill="white"/>
<path d="M66.5324 16.9815H63.9518V16.1729H66.1339V16.5699C66.1319 16.6233 66.1408 16.6765 66.16 16.7264C66.1791 16.7762 66.2081 16.8217 66.2454 16.8602C66.2826 16.8986 66.3272 16.9291 66.3765 16.95C66.4258 16.9709 66.4788 16.9816 66.5324 16.9815Z" fill="white"/>
<path d="M65.021 62.2057V62.6028C65.021 62.7073 64.9797 62.8075 64.906 62.8819C64.8323 62.9562 64.7322 62.9986 64.6274 62.9999H55.3934C55.2877 62.9999 55.1863 62.958 55.1116 62.8836C55.0369 62.8091 54.9949 62.7081 54.9949 62.6028V62.2057H65.021Z" fill="white"/>
<path d="M65.021 53.9444V62.2105H64.2434V54.4286L63.6262 54.5352C63.718 54.5181 63.8009 54.4696 63.8604 54.3979C63.9199 54.3262 63.9523 54.2359 63.9518 54.1429V53.6587L64.5593 53.5424C64.6171 53.5303 64.6768 53.5314 64.7341 53.5456C64.7914 53.5599 64.8446 53.5869 64.8898 53.6248C64.9347 53.6645 64.9699 53.714 64.9926 53.7694C65.0154 53.8248 65.0251 53.8847 65.021 53.9444Z" fill="white"/>
<path d="M63.9519 53.6683V54.1526C63.9523 54.2456 63.9199 54.3359 63.8604 54.4075C63.8009 54.4792 63.718 54.5278 63.6262 54.5448C61.251 54.9128 58.833 54.9128 56.4578 54.5448C56.3642 54.5299 56.2791 54.4822 56.2176 54.4103C56.1561 54.3384 56.1224 54.247 56.1224 54.1526V53.6683L56.5793 53.7458L56.9146 53.7942H56.9438L57.25 53.833H57.3374L57.561 53.862L57.804 53.8863H57.9984H58.1442L58.4795 53.9153L58.8683 53.9395H59.262H59.6508H60.4332H60.8269H61.2205L61.6093 53.9153L61.9447 53.8863H62.0856H62.2849L62.5376 53.8572L62.7369 53.833C62.7806 53.8354 62.8244 53.8354 62.8681 53.833L63.1354 53.7991H63.1694L63.5047 53.7507L63.9519 53.6683Z" fill="white"/>
<path d="M63.9518 22.6376V53.6683L63.495 53.7458L63.1597 53.7942V22.2405C63.1597 22.3458 63.2017 22.4468 63.2764 22.5213C63.3511 22.5957 63.4525 22.6376 63.5582 22.6376H63.9518Z" fill="white"/>
<path d="M63.9518 21.8434V22.6376H63.563C63.4573 22.6376 63.356 22.5958 63.2812 22.5213C63.2065 22.4468 63.1645 22.3458 63.1645 22.2405V16.5845C63.1626 16.5311 63.1714 16.4779 63.1906 16.428C63.2097 16.3782 63.2388 16.3327 63.276 16.2942C63.3132 16.2558 63.3578 16.2253 63.4071 16.2044C63.4564 16.1835 63.5095 16.1728 63.563 16.1729H63.9567V21.8289L63.9518 21.8434Z" fill="white"/>
<path d="M63.9518 14.9332V15.737L63.7283 15.7854C63.6753 15.8013 63.6196 15.8059 63.5648 15.7991C63.5099 15.7924 63.4571 15.7743 63.4096 15.7461C63.3621 15.7178 63.3211 15.6801 63.289 15.6352C63.257 15.5903 63.2347 15.5392 63.2235 15.4853C63.2124 15.4313 63.2126 15.3757 63.2242 15.3218C63.2358 15.268 63.2585 15.2171 63.2909 15.1725C63.3233 15.1278 63.3646 15.0904 63.4123 15.0625C63.46 15.0347 63.513 15.017 63.5679 15.0106L63.9518 14.9332Z" fill="white"/>
<path d="M63.9518 8.48294V8.83645L63.6019 8.87519L62.7466 8.96719L60.9386 9.14637L60.0541 9.23353C59.1696 9.31586 58.2899 9.38849 57.4151 9.46113L56.5404 9.52893L56.1127 9.56283V9.13668C56.1135 9.03654 56.1519 8.94033 56.2202 8.86688C56.2885 8.79343 56.3819 8.74804 56.482 8.7396C58.7954 8.56527 61.1622 8.34735 63.5144 8.0907C63.5695 8.08532 63.6251 8.09143 63.6777 8.10866C63.7303 8.12588 63.7788 8.15384 63.8199 8.19074C63.8611 8.22765 63.894 8.27269 63.9168 8.323C63.9395 8.37331 63.9514 8.42778 63.9518 8.48294Z" fill="white"/>
<path d="M63.5144 8.09069C66.0708 7.81466 68.6757 7.49022 71.2515 7.12219V5.76628L71.6938 5.71301L72.0437 5.66943V7.45632C72.0436 7.55147 72.0091 7.6434 71.9467 7.71539C71.8843 7.78738 71.7979 7.83464 71.7035 7.84856C69.1277 8.21659 66.5179 8.54588 63.9275 8.81706V8.46356C63.9271 8.4084 63.9152 8.35392 63.8925 8.30361C63.8697 8.2533 63.8368 8.20826 63.7956 8.17135C63.7545 8.13445 63.706 8.1065 63.6534 8.08928C63.6008 8.07205 63.5452 8.06594 63.4901 8.07132L63.5144 8.09069Z" fill="white"/>
<path d="M63.1596 16.5844V8.90906L62.7465 8.95264L63.6019 8.86063L63.9518 8.8219V14.9186L63.5679 14.9961C63.5129 15.0024 63.46 15.0201 63.4123 15.048C63.3646 15.0758 63.3232 15.1133 63.2908 15.1579C63.2584 15.2025 63.2357 15.2534 63.2242 15.3073C63.2126 15.3611 63.2123 15.4168 63.2235 15.4707C63.2347 15.5247 63.257 15.5757 63.289 15.6206C63.321 15.6655 63.3621 15.7033 63.4096 15.7315C63.457 15.7597 63.5099 15.7778 63.5647 15.7846C63.6196 15.7914 63.6753 15.7867 63.7282 15.7709L63.9518 15.7225V16.1728H63.563C63.509 16.1721 63.4554 16.1824 63.4055 16.2029C63.3556 16.2235 63.3105 16.254 63.2727 16.2925C63.235 16.3309 63.2055 16.3767 63.1861 16.4269C63.1667 16.4771 63.1576 16.5307 63.1596 16.5844Z" fill="white"/>
<path d="M57.4152 9.46112L56.9049 9.49986V15.2528C56.8819 15.1913 56.8435 15.1367 56.7933 15.0943C56.7431 15.0519 56.6828 15.0231 56.6181 15.0106L56.1321 14.9089V9.58218L56.5598 9.54829L57.4152 9.46112Z" fill="white"/>
<path d="M56.9048 15.2527C56.9347 15.323 56.9432 15.4005 56.9291 15.4755C56.9239 15.499 56.9158 15.5218 56.9048 15.5433V15.2527Z" fill="white"/>
<path d="M56.9048 22.2405V53.7942L56.5695 53.7458L56.1127 53.6683V22.6376H56.5112C56.616 22.6363 56.7162 22.5939 56.7898 22.5196C56.8635 22.4452 56.9049 22.345 56.9048 22.2405Z" fill="white"/>
<path d="M56.9048 16.5845V22.2405C56.9049 22.345 56.8635 22.4453 56.7898 22.5196C56.7162 22.5939 56.616 22.6363 56.5112 22.6376H56.1127V16.1729H56.5112C56.5644 16.1735 56.6169 16.1847 56.6656 16.2058C56.7144 16.227 56.7584 16.2576 56.7951 16.296C56.8318 16.3343 56.8604 16.3796 56.8793 16.4292C56.8981 16.4787 56.9068 16.5315 56.9048 16.5845Z" fill="white"/>
<path d="M56.9048 15.5433V16.5845C56.9049 16.48 56.8635 16.3797 56.7898 16.3054C56.7162 16.2311 56.616 16.1887 56.5112 16.1874H56.1127V15.7031L56.4577 15.7758C56.5477 15.7943 56.6414 15.7814 56.7229 15.739C56.8044 15.6966 56.8687 15.6275 56.9048 15.5433Z" fill="white"/>
<path d="M56.9048 15.2528V15.5433C56.8703 15.6293 56.8068 15.7005 56.7251 15.7447C56.6435 15.7889 56.5489 15.8033 56.4577 15.7854L56.1127 15.7128V14.9089L56.5987 15.0106C56.6668 15.02 56.7312 15.0474 56.785 15.09C56.8389 15.1326 56.8803 15.1888 56.9048 15.2528Z" fill="white"/>
<path d="M56.482 8.73962C56.3818 8.74807 56.2884 8.79346 56.2201 8.86691C56.1518 8.94036 56.1135 9.03657 56.1126 9.13671V9.56286C51.204 9.93573 46.2274 10.1536 41.3188 10.2117V9.81951C41.32 9.7672 41.3102 9.71521 41.2901 9.66686C41.27 9.61852 41.2401 9.57485 41.2022 9.53864C41.1661 9.50192 41.123 9.47273 41.0754 9.45278C41.0279 9.43283 40.9768 9.4225 40.9252 9.42242C46.067 9.39336 51.3158 9.14155 56.482 8.73962Z" fill="white"/>
<path d="M56.448 54.5255L55.8259 54.4189V62.2057H55.0289V53.9444C55.0287 53.8854 55.0422 53.8272 55.0683 53.7742C55.0945 53.7213 55.1325 53.6751 55.1795 53.6393C55.2236 53.6012 55.276 53.574 55.3326 53.5597C55.3891 53.5454 55.4482 53.5445 55.5051 53.557C55.7044 53.6005 55.9085 53.6393 56.1126 53.6732V54.1574C56.1182 54.2476 56.1544 54.3333 56.2154 54.4002C56.2763 54.4671 56.3584 54.5113 56.448 54.5255Z" fill="white"/>
<path d="M56.1126 21.8434H20.8826V22.6327H56.1126V21.8434Z" fill="white"/>
<path d="M56.1126 16.1729V16.967H53.6826C53.7875 16.9657 53.8876 16.9233 53.9613 16.849C54.035 16.7747 54.0763 16.6744 54.0763 16.5699V16.1729H56.1126Z" fill="white"/>
<path d="M56.1126 14.9089V15.7128L54.052 15.2915V16.1728H53.2598V14.7927C53.2598 14.7342 53.2728 14.6765 53.2981 14.6237C53.3233 14.5709 53.36 14.5244 53.4056 14.4876C53.4508 14.4498 53.5041 14.4227 53.5614 14.4085C53.6186 14.3942 53.6784 14.3931 53.7361 14.4053L56.1126 14.9089Z" fill="white"/>
<path d="M55.4274 62.9999H51.1312C51.0255 62.9999 50.9241 62.958 50.8494 62.8836C50.7747 62.8091 50.7327 62.7081 50.7327 62.6028C50.7327 62.4975 50.7747 62.3965 50.8494 62.322C50.9241 62.2475 51.0255 62.2057 51.1312 62.2057H55.0192V62.6028C55.0192 62.6557 55.0298 62.7082 55.0504 62.757C55.071 62.8058 55.1013 62.85 55.1393 62.887C55.1773 62.924 55.2224 62.9531 55.2719 62.9725C55.3214 62.9918 55.3743 63.0012 55.4274 62.9999Z" fill="white"/>
<path d="M54.052 16.1729V16.5699C54.0582 16.6254 54.0525 16.6816 54.0354 16.7348C54.0184 16.788 53.9902 16.837 53.9528 16.8786C53.9155 16.9202 53.8697 16.9535 53.8185 16.9762C53.7674 16.999 53.7119 17.0108 53.6559 17.0108C53.5999 17.0108 53.5445 16.999 53.4933 16.9762C53.4421 16.9535 53.3964 16.9202 53.359 16.8786C53.3216 16.837 53.2935 16.788 53.2764 16.7348C53.2593 16.6816 53.2536 16.6254 53.2598 16.5699V16.1729H54.052Z" fill="white"/>
<path d="M53.6583 16.9815H40.9252C41.03 16.9803 41.1301 16.9379 41.2038 16.8635C41.2775 16.7892 41.3188 16.6889 41.3188 16.5845V16.1729H53.2598V16.5699C53.2578 16.6233 53.2667 16.6765 53.2858 16.7264C53.305 16.7762 53.334 16.8217 53.3712 16.8602C53.4084 16.8986 53.4531 16.9291 53.5024 16.95C53.5517 16.9709 53.6047 16.9816 53.6583 16.9815Z" fill="white"/>
<path d="M51.9233 7.40788C53.9516 7.30458 55.9766 7.1819 57.9983 7.03986C55.9766 7.18513 53.9516 7.30781 51.9233 7.40788Z" fill="white"/>
<path d="M45.8241 7.64034C47.862 7.58869 49.8951 7.5112 51.9234 7.4079C49.8919 7.5112 47.8588 7.58869 45.8241 7.64034Z" fill="white"/>
<path d="M41.3189 16.1729V16.5699C41.3189 16.6744 41.2776 16.7747 41.2039 16.849C41.1302 16.9233 41.0301 16.9657 40.9252 16.967H36.0653C35.9596 16.967 35.8582 16.9252 35.7835 16.8507C35.7087 16.7763 35.6667 16.6753 35.6667 16.5699V16.1729H41.3092H41.3189Z" fill="white"/>
<path d="M41.3189 10.2117V16.1729H40.5267V10.2214H39.8463H40.9252L41.3189 10.2117Z" fill="white"/>
<path d="M41.3189 9.81945V10.2117H40.9252H39.8463H37.1539H36.0701H35.6765V9.81945C35.6764 9.71497 35.7178 9.6147 35.7915 9.54037C35.8651 9.46604 35.9653 9.42364 36.0701 9.42236C37.6739 9.42236 39.302 9.42236 40.9301 9.42236C40.9817 9.42245 41.0328 9.43277 41.0803 9.45273C41.1279 9.47268 41.171 9.50187 41.2071 9.53859C41.2441 9.57522 41.2732 9.61906 41.2924 9.66739C41.3117 9.71572 41.3207 9.76749 41.3189 9.81945Z" fill="white"/>
<path d="M38.5001 7.73718C40.1201 7.73718 41.7482 7.72266 43.3844 7.6936C40.1282 7.75171 36.8704 7.75171 33.611 7.6936C35.2391 7.72266 36.872 7.73718 38.5001 7.73718Z" fill="white"/>
<path d="M37.1539 10.2263H36.4686V16.1729H35.6765V10.2117H36.0701L37.1539 10.2263Z" fill="white"/>
<path d="M36.075 16.9815H23.439C23.5447 16.9815 23.6461 16.9397 23.7208 16.8652C23.7956 16.7908 23.8375 16.6898 23.8375 16.5845V16.1729H35.6862V16.5699C35.6842 16.6225 35.6928 16.6749 35.7113 16.7241C35.7299 16.7734 35.758 16.8184 35.7942 16.8567C35.8304 16.895 35.8738 16.9258 35.922 16.9472C35.9702 16.9686 36.0222 16.9803 36.075 16.9815Z" fill="white"/>
<path d="M36.0701 9.42242C35.9653 9.42369 35.8652 9.46609 35.7915 9.54042C35.7178 9.61475 35.6765 9.71503 35.6765 9.81951V10.2117C30.7679 10.1536 25.7913 9.93573 20.8827 9.56286V9.13671C20.8819 9.03734 20.8443 8.94176 20.777 8.86842C20.7097 8.79509 20.6175 8.7492 20.5182 8.73962C25.6795 9.14155 30.9088 9.39336 36.0701 9.42242Z" fill="white"/>
<path d="M25.8787 62.2057C25.9311 62.2057 25.9829 62.216 26.0312 62.2359C26.0796 62.2559 26.1235 62.2851 26.1605 62.322C26.1975 62.3589 26.2269 62.4026 26.2469 62.4508C26.2669 62.499 26.2773 62.5506 26.2773 62.6028C26.2773 62.6549 26.2669 62.7065 26.2469 62.7547C26.2269 62.8029 26.1975 62.8467 26.1605 62.8836C26.1235 62.9204 26.0796 62.9497 26.0312 62.9696C25.9829 62.9896 25.9311 62.9999 25.8787 62.9999H21.5679C21.6736 62.9999 21.775 62.958 21.8497 62.8836C21.9245 62.8091 21.9665 62.7081 21.9665 62.6028V62.2057H25.8787Z" fill="white"/>
<path d="M23.8278 16.1729V16.5699C23.8278 16.6753 23.7858 16.7763 23.7111 16.8507C23.6364 16.9252 23.535 16.967 23.4293 16.967C23.3245 16.9657 23.2243 16.9233 23.1506 16.849C23.077 16.7747 23.0356 16.6744 23.0356 16.5699V16.1729H23.8278Z" fill="white"/>
<path d="M23.8278 14.8072V16.1728H23.0356V15.2769L20.8826 15.7176V14.9138L23.3515 14.4053C23.4092 14.3931 23.469 14.3942 23.5263 14.4085C23.5835 14.4227 23.6368 14.4498 23.682 14.4876C23.7295 14.5259 23.7675 14.5748 23.7928 14.6303C23.8181 14.6857 23.8301 14.7463 23.8278 14.8072Z" fill="white"/>
<path d="M23.4293 16.9815H20.8826V16.1729H23.0356V16.5699C23.0336 16.6229 23.0424 16.6757 23.0612 16.7252C23.0801 16.7748 23.1087 16.8201 23.1453 16.8584C23.182 16.8968 23.2261 16.9274 23.2748 16.9486C23.3236 16.9697 23.3761 16.9809 23.4293 16.9815Z" fill="white"/>
<path d="M21.9664 62.2057V62.6028C21.9664 62.7081 21.9244 62.8091 21.8497 62.8836C21.7749 62.958 21.6736 62.9999 21.5679 62.9999H12.3582C12.2525 62.9999 12.1512 62.958 12.0764 62.8836C12.0017 62.8091 11.9597 62.7081 11.9597 62.6028V62.2057H21.9664Z" fill="white"/>
<path d="M21.9664 53.9444V62.2105H21.1743V54.4286L20.5522 54.5352C20.6445 54.5183 20.7279 54.4699 20.7882 54.3983C20.8486 54.3267 20.8819 54.2364 20.8827 54.1429V53.6587L21.4902 53.5424C21.5479 53.5303 21.6077 53.5314 21.6649 53.5456C21.7222 53.5599 21.7754 53.5869 21.8206 53.6248C21.8682 53.6631 21.9061 53.7119 21.9314 53.7674C21.9567 53.8229 21.9687 53.8835 21.9664 53.9444Z" fill="white"/>
<path d="M20.8827 53.6683V54.1526C20.882 54.2461 20.8486 54.3364 20.7883 54.408C20.728 54.4795 20.6445 54.5279 20.5522 54.5448C18.177 54.9128 15.759 54.9128 13.3838 54.5448C13.2898 54.5308 13.204 54.4834 13.1424 54.4113C13.0808 54.3392 13.0474 54.2473 13.0484 54.1526V53.6683L13.5053 53.7458L13.8406 53.7942H13.8649L14.1711 53.833H14.2586L14.487 53.862L14.7251 53.8863H14.9244H15.0653L15.4007 53.9153L15.7943 53.9395H16.1831H16.5768H17.3592H17.7529H18.1417L18.5305 53.9153L18.8512 53.9444H18.997H19.1914L19.4442 53.9153L19.6483 53.8911H19.7746L20.0419 53.8572H20.0808L20.4162 53.8088L20.8827 53.6683Z" fill="white"/>
<path d="M20.8826 22.6376V53.6683L20.4258 53.7458L20.0905 53.7942V22.2405C20.0904 22.345 20.1318 22.4452 20.2055 22.5196C20.2791 22.5939 20.3793 22.6363 20.4841 22.6376H20.8826Z" fill="white"/>
<path d="M20.8826 21.8434V22.6376H20.4841C20.3793 22.6363 20.2791 22.5939 20.2055 22.5196C20.1318 22.4453 20.0904 22.345 20.0905 22.2405V16.5845C20.0904 16.48 20.1318 16.3797 20.2055 16.3054C20.2791 16.2311 20.3793 16.1887 20.4841 16.1874H20.8826V21.8434Z" fill="white"/>
<path d="M20.8827 14.9283V15.7322L20.6251 15.7855C20.5727 15.799 20.518 15.8016 20.4645 15.7931C20.411 15.7846 20.3599 15.7652 20.3143 15.7361C20.2687 15.707 20.2296 15.6689 20.1994 15.624C20.1693 15.5792 20.1487 15.5287 20.1391 15.4756C20.1367 15.4498 20.1367 15.4238 20.1391 15.3981C20.1393 15.3072 20.1708 15.2192 20.2283 15.1487C20.2858 15.0782 20.3658 15.0295 20.455 15.0107L20.8827 14.9283Z" fill="white"/>
<path d="M20.8827 9.13668V9.56283L20.455 9.52893L19.5802 9.46113C18.7054 9.38849 17.8257 9.31586 16.9412 9.23353L16.0567 9.14637L14.2488 8.96719L13.3934 8.87519L13.0435 8.83645V8.48294C13.0439 8.42778 13.0559 8.37331 13.0786 8.323C13.1013 8.27269 13.1343 8.22765 13.1754 8.19074C13.2166 8.15384 13.265 8.12588 13.3176 8.10866C13.3702 8.09143 13.4258 8.08532 13.4809 8.0907C15.838 8.34735 18.2048 8.57495 20.5182 8.7396C20.6174 8.74917 20.7096 8.79506 20.777 8.86839C20.8443 8.94173 20.8819 9.03731 20.8827 9.13668Z" fill="white"/>
<path d="M18.997 7.03986C21.0188 7.18513 23.0454 7.30781 25.0768 7.40788C23.0454 7.31103 21.0188 7.18836 18.997 7.03986Z" fill="white"/>
<path d="M20.1585 15.4755C20.1682 15.5286 20.1887 15.5791 20.2188 15.624C20.249 15.6688 20.2881 15.707 20.3337 15.7361C20.3793 15.7651 20.4305 15.7845 20.4839 15.793C20.5374 15.8015 20.5921 15.7989 20.6445 15.7854L20.9021 15.7321V16.1728H20.5036C20.3987 16.1741 20.2986 16.2165 20.2249 16.2908C20.1512 16.3651 20.1099 16.4654 20.1099 16.5699V15.398H20.1682C20.1626 15.4235 20.1594 15.4494 20.1585 15.4755Z" fill="white"/>
<path d="M19.5802 9.46112L20.455 9.52892L20.8827 9.56282V14.9283L20.4647 15.0106C20.3755 15.0295 20.2955 15.0782 20.238 15.1487C20.1805 15.2192 20.1491 15.3072 20.1488 15.398H20.0905V9.49986L19.5802 9.46112Z" fill="white"/>
<path d="M14.2487 8.96717L13.8356 8.92359V15.398C13.8354 15.3072 13.8039 15.2192 13.7464 15.1487C13.6889 15.0782 13.6089 15.0295 13.5198 15.0106L13.0338 14.9138V8.83643L13.3837 8.87516L14.2487 8.96717Z" fill="white"/>
<path d="M13.8357 22.2405V53.7942L13.5004 53.7458L13.0435 53.6683V22.6376H13.4372C13.5429 22.6376 13.6442 22.5957 13.719 22.5213C13.7937 22.4468 13.8357 22.3458 13.8357 22.2405Z" fill="white"/>
<path d="M13.8357 16.5845V22.2405C13.8357 22.3458 13.7937 22.4468 13.719 22.5213C13.6442 22.5958 13.5429 22.6376 13.4372 22.6376H13.0435V16.1729H13.4372C13.4908 16.1728 13.5438 16.1835 13.5931 16.2044C13.6425 16.2253 13.6871 16.2558 13.7243 16.2942C13.7615 16.3327 13.7905 16.3782 13.8097 16.428C13.8288 16.4779 13.8377 16.5311 13.8357 16.5845Z" fill="white"/>
<path d="M13.8357 15.398V16.5844C13.8357 16.4791 13.7937 16.3781 13.719 16.3036C13.6442 16.2292 13.5429 16.1873 13.4372 16.1873H13.0435V15.7031L13.3594 15.7709C13.4119 15.7844 13.4665 15.787 13.52 15.7785C13.5735 15.77 13.6246 15.7506 13.6703 15.7215C13.7159 15.6924 13.755 15.6543 13.7851 15.6094C13.8152 15.5646 13.8358 15.5141 13.8454 15.461C13.8438 15.4398 13.8405 15.4187 13.8357 15.398Z" fill="white"/>
<path d="M13.8356 15.3981C13.838 15.4238 13.838 15.4498 13.8356 15.4756C13.826 15.5287 13.8055 15.5792 13.7753 15.624C13.7452 15.6689 13.7061 15.707 13.6605 15.7361C13.6149 15.7652 13.5637 15.7846 13.5102 15.7931C13.4567 15.8016 13.4021 15.799 13.3496 15.7855L13.0338 15.7177V14.9138L13.5198 15.0107C13.6089 15.0295 13.6889 15.0782 13.7464 15.1487C13.8039 15.2192 13.8354 15.3072 13.8356 15.3981Z" fill="white"/>
<path d="M13.1748 8.1924C13.1328 8.22816 13.0992 8.27276 13.0765 8.323C13.0538 8.37324 13.0426 8.42786 13.0436 8.48295V8.83645C10.4824 8.56043 7.87257 8.23114 5.29193 7.86795C5.19746 7.85403 5.11116 7.80677 5.04872 7.73478C4.98628 7.66279 4.95186 7.57085 4.95172 7.4757V5.67914L5.30164 5.72272L5.7439 5.77599V7.13189C8.32455 7.49508 10.9246 7.81953 13.481 8.10039C13.4263 8.09257 13.3706 8.09676 13.3177 8.11265C13.2648 8.12854 13.216 8.15576 13.1748 8.1924Z" fill="white"/>
<path d="M13.0435 54.1332C13.0424 54.2279 13.0758 54.3198 13.1375 54.3919C13.1991 54.464 13.2848 54.5114 13.3788 54.5255L12.7519 54.4189V62.2057H11.9597V53.9444C11.9597 53.8859 11.9727 53.8282 11.998 53.7754C12.0232 53.7226 12.0599 53.6761 12.1055 53.6393C12.1507 53.6015 12.204 53.5744 12.2612 53.5602C12.3185 53.5459 12.3782 53.5448 12.436 53.557C12.6352 53.6006 12.8345 53.6393 13.0435 53.6732V54.1332Z" fill="white"/>
<path d="M13.0436 21.8434V22.6376H5.35024C5.24455 22.6376 5.14318 22.5958 5.06844 22.5213C4.99371 22.4468 4.95172 22.3458 4.95172 22.2405V16.5845C4.95172 16.4792 4.99371 16.3781 5.06844 16.3037C5.14318 16.2292 5.24455 16.1874 5.35024 16.1874H10.1616V16.5845C10.1616 16.6889 10.2029 16.7892 10.2766 16.8635C10.3503 16.9379 10.4504 16.9803 10.5553 16.9815H5.72932V21.8241L13.0436 21.8434Z" fill="white"/>
<path d="M13.0435 16.1729V16.967H10.5552C10.6609 16.967 10.7622 16.9252 10.837 16.8507C10.9117 16.7763 10.9537 16.6753 10.9537 16.5699V16.1729H13.0435Z" fill="white"/>
<path d="M13.0435 14.9138V15.7177L10.9537 15.2915V16.1729H10.1616V14.7927C10.1616 14.7348 10.1742 14.6775 10.1985 14.6248C10.2228 14.5722 10.2583 14.5254 10.3025 14.4877C10.3479 14.4502 10.4011 14.4233 10.4583 14.409C10.5155 14.3948 10.5752 14.3935 10.633 14.4054L13.0435 14.9138Z" fill="white"/>
<path d="M12.3583 62.9999H7.88711C7.78141 62.9999 7.68005 62.958 7.60531 62.8836C7.53057 62.8091 7.48859 62.7081 7.48859 62.6028C7.48859 62.4975 7.53057 62.3965 7.60531 62.322C7.68005 62.2475 7.78141 62.2057 7.88711 62.2057H11.9598V62.6028C11.9598 62.7081 12.0018 62.8091 12.0765 62.8836C12.1512 62.958 12.2526 62.9999 12.3583 62.9999Z" fill="white"/>
<path d="M10.9537 16.1729V16.5699C10.9537 16.6753 10.9118 16.7763 10.837 16.8507C10.7623 16.9252 10.6609 16.967 10.5552 16.967C10.4504 16.9657 10.3503 16.9233 10.2766 16.849C10.2029 16.7747 10.1616 16.6744 10.1616 16.5699V16.1729H10.9537Z" fill="white"/>
<path d="M71.6014 4.93338C72.3596 4.84137 73.1712 4.73968 74.0703 4.61862L75.8928 0.933475C52.4094 5.36921 24.586 5.36921 1.10259 0.933475L2.92509 4.61862C3.82904 4.73968 4.63579 4.84137 5.39395 4.93338C5.3389 4.92586 5.28286 4.93065 5.2299 4.94741C5.17694 4.96416 5.12838 4.99246 5.08777 5.03024C5.04445 5.06628 5.00976 5.11149 4.98622 5.1626C4.96267 5.2137 4.95087 5.26941 4.95169 5.32563V5.67429C4.23241 5.58713 3.45967 5.48543 2.60918 5.37405C2.54502 5.36666 2.48378 5.34325 2.43111 5.30601C2.37844 5.26876 2.33604 5.21888 2.30786 5.16098L0.038258 0.570287C0.00697056 0.503441 -0.0054871 0.429375 0.0022175 0.356018C0.0099221 0.282661 0.0374972 0.212774 0.081996 0.153831C0.127142 0.0963498 0.18732 0.0523824 0.25591 0.0267536C0.3245 0.0011249 0.398842 -0.00517491 0.470788 0.00855434C24.2847 4.62346 52.7155 4.62346 76.5246 0.00855434C76.5973 -0.00683211 76.6729 -0.00138343 76.7427 0.0242635C76.8124 0.0499105 76.8734 0.0947072 76.9187 0.153476C76.9639 0.212245 76.9915 0.282581 76.9983 0.356343C77.0051 0.430106 76.9909 0.504284 76.9571 0.570287L74.6924 5.16098C74.6624 5.21846 74.6188 5.26785 74.5655 5.30495C74.5122 5.34205 74.4507 5.36576 74.3862 5.37405C73.5357 5.48543 72.763 5.58713 72.0437 5.67429V5.32563C72.0441 5.26993 72.0326 5.21478 72.01 5.16385C71.9874 5.11291 71.9541 5.06737 71.9125 5.03024C71.8707 4.99263 71.8213 4.9645 71.7676 4.94778C71.7139 4.93105 71.6572 4.92614 71.6014 4.93338Z" fill="white"/>
<path d="M13.0387 16.9767H5.74384V18.2599H13.0387V16.9767Z" fill="#CE0000"/>
<path d="M56.1126 16.9767H20.8826V18.2599H56.1126V16.9767Z" fill="#CE0000"/>
<path d="M71.2514 16.9767H63.9518V18.2599H71.2514V16.9767Z" fill="#CE0000"/>
<path d="M7.68298 16.9767H5.74384V21.8434H7.68298V16.9767Z" fill="#CE0000"/>
<path d="M71.2514 16.9767H69.3123V21.8434H71.2514V16.9767Z" fill="#CE0000"/>
<path d="M56.1127 16.9767H54.1735V21.8434H56.1127V16.9767Z" fill="#CE0000"/>
<path d="M22.8218 16.9767H20.8826V21.8434H22.8218V16.9767Z" fill="#CE0000"/>
<path d="M56.9048 18.6813V18.9767C56.9158 18.9552 56.9239 18.9324 56.9291 18.9089C56.943 18.8323 56.9346 18.7533 56.9048 18.6813Z" fill="#CE0000"/>
<path d="M62.7465 8.96717L60.9386 9.14634L60.0541 9.2335C59.1696 9.31583 58.2899 9.38847 57.4151 9.4611L56.9048 9.49984V12.9332L57.4151 12.8944L60.0541 12.662L60.9386 12.5797L62.7465 12.4005L63.1596 12.3569V8.90906L62.7465 8.96717Z" fill="#CE0000"/>
<path d="M19.5802 9.4611C18.7054 9.38846 17.8257 9.31583 16.9412 9.2335L16.0567 9.14634L14.2488 8.96716L13.8357 8.92358V12.4489L14.2488 12.4925L16.0567 12.6717L16.9412 12.7588C17.8257 12.8412 18.7054 12.9138 19.5802 12.9864L20.0905 13.0252V9.49984L19.5802 9.4611Z" fill="#CE0000"/>
<path d="M13.8357 48.39H20.0905V53.7943H20.0516L19.7843 53.8282H19.658L19.4538 53.8524L19.2011 53.8814H19.0067H18.8609L18.5256 53.9105L18.1368 53.9347H17.748H17.3543H16.5719H16.1782H15.7894L15.3958 53.9105L15.0604 53.8814H14.9195H14.7202L14.4821 53.8572L14.2537 53.8282H14.1662L13.86 53.7894H13.8357V48.39Z" fill="#CE0000"/>
<path d="M63.1596 48.39V53.7943H63.1256L62.8583 53.8282C62.8146 53.8305 62.7708 53.8305 62.7271 53.8282L62.5278 53.8524L62.2751 53.8814H62.0758H61.9349L61.619 53.9444L61.2302 53.9686H60.8365H60.4429H59.6604H59.2716H58.8779L58.4892 53.9444L58.1538 53.9153H58.008H57.8136L57.5706 53.8911L57.3471 53.862H57.2596L56.9534 53.8233H56.9243V48.39H63.1596Z" fill="#CE0000"/>
<g opacity="0.73">
<path d="M14.7202 26.037C14.645 26.0358 14.5733 26.0051 14.5206 25.9517C14.4679 25.8982 14.4383 25.8263 14.4384 25.7513V22.2405C14.4384 22.166 14.468 22.0946 14.5209 22.0419C14.5738 21.9892 14.6455 21.9597 14.7202 21.9597C14.795 21.9597 14.8667 21.9892 14.9195 22.0419C14.9724 22.0946 15.0021 22.166 15.0021 22.2405V25.7513C15.0021 25.8263 14.9726 25.8982 14.9198 25.9517C14.8671 26.0051 14.7954 26.0358 14.7202 26.037Z" fill="white"/>
</g>
<g opacity="0.73">
<path d="M14.7202 29.2476C14.645 29.2463 14.5733 29.2157 14.5206 29.1622C14.4679 29.1088 14.4383 29.0369 14.4384 28.9619V26.991C14.4384 26.9165 14.468 26.8451 14.5209 26.7924C14.5738 26.7397 14.6455 26.7101 14.7202 26.7101C14.795 26.7101 14.8667 26.7397 14.9195 26.7924C14.9724 26.8451 15.0021 26.9165 15.0021 26.991V28.9619C15.0021 29.0369 14.9726 29.1088 14.9198 29.1622C14.8671 29.2157 14.7954 29.2463 14.7202 29.2476Z" fill="white"/>
</g>
<g opacity="0.73">
<path d="M61.8815 42.3708C61.8067 42.3708 61.735 42.3412 61.6822 42.2886C61.6293 42.2359 61.5996 42.1644 61.5996 42.09V38.5791C61.5996 38.5423 61.6069 38.5057 61.6211 38.4717C61.6352 38.4376 61.656 38.4066 61.6822 38.3805C61.7083 38.3545 61.7394 38.3338 61.7736 38.3197C61.8078 38.3055 61.8444 38.2983 61.8815 38.2983C61.9185 38.2983 61.9552 38.3055 61.9894 38.3197C62.0235 38.3338 62.0546 38.3545 62.0808 38.3805C62.107 38.4066 62.1277 38.4376 62.1419 38.4717C62.1561 38.5057 62.1634 38.5423 62.1634 38.5791V42.09C62.1634 42.1644 62.1337 42.2359 62.0808 42.2886C62.0279 42.3412 61.9562 42.3708 61.8815 42.3708Z" fill="white"/>
</g>
<g opacity="0.73">
<path d="M61.8815 45.591C61.8067 45.591 61.735 45.5614 61.6822 45.5088C61.6293 45.4561 61.5996 45.3847 61.5996 45.3102V43.3393C61.5996 43.3024 61.6069 43.2659 61.6211 43.2318C61.6352 43.1977 61.656 43.1668 61.6822 43.1407C61.7083 43.1146 61.7394 43.0939 61.7736 43.0798C61.8078 43.0657 61.8444 43.0584 61.8815 43.0584C61.9185 43.0584 61.9552 43.0657 61.9894 43.0798C62.0235 43.0939 62.0546 43.1146 62.0808 43.1407C62.107 43.1668 62.1277 43.1977 62.1419 43.2318C62.1561 43.2659 62.1634 43.3024 62.1634 43.3393V45.3102C62.1634 45.3847 62.1337 45.4561 62.0808 45.5088C62.0279 45.5614 61.9562 45.591 61.8815 45.591Z" fill="white"/>
</g>
<path opacity="0.21" d="M46.2032 16.9235H30.6901V21.7902H46.2032V16.9235Z" fill="white"/>
</svg>
