<svg width="195" height="24" viewBox="0 0 195 24" fill="none" xmlns="http://www.w3.org/2000/svg">
<path d="M2.40967 0H28.8818C29.5426 0 30.0895 0.199382 30.5225 0.598145C30.7617 0.826009 30.9155 1.014 30.9839 1.16211C31.189 1.56087 31.2915 1.89697 31.2915 2.17041V6.20361H18.5254V23.8062H14.5605C14.0023 23.8062 13.4782 23.584 12.9883 23.1396C12.9769 23.1283 12.9655 23.1112 12.9541 23.0884C12.9199 23.0542 12.8743 23.0029 12.8174 22.9346C12.487 22.5016 12.3218 22.0573 12.3218 21.6016V6.20361H0V3.05908C0 2.25016 0.0227865 1.84001 0.0683594 1.82861C0.170898 1.37288 0.347493 1.0083 0.598145 0.734863C0.871582 0.495605 1.07096 0.347493 1.19629 0.290527C1.48112 0.0968425 1.88558 0 2.40967 0Z" fill="white"/>
<path d="M43.0057 0H55.2591C57.3213 0 59.2467 0.620931 61.0354 1.86279C61.3317 2.04508 61.702 2.34131 62.1463 2.75146C62.2146 2.80843 62.2887 2.87109 62.3685 2.93945C62.9267 3.57747 63.3312 4.06738 63.5818 4.40918C64.7781 6.17513 65.3763 8.12337 65.3763 10.2539V13.5522C65.3763 16.0702 64.5617 18.3089 62.9324 20.2686C62.4197 20.8268 61.9982 21.2256 61.6678 21.4648C61.0981 21.9434 60.5114 22.3364 59.9075 22.644C58.4264 23.4188 56.8655 23.8062 55.2249 23.8062H43.0398C40.841 23.8062 38.813 23.1283 36.9559 21.7725C36.6482 21.5332 36.2153 21.1401 35.657 20.5933C35.0988 19.9894 34.7171 19.4995 34.512 19.1235C33.4297 17.4487 32.8885 15.6144 32.8885 13.6206V10.1855C32.8885 7.84993 33.6347 5.73079 35.1272 3.82812C35.3437 3.57747 35.6969 3.1901 36.1868 2.66602C36.6767 2.24447 37.0983 1.93115 37.4515 1.72607C39.1946 0.575358 41.046 0 43.0057 0ZM39.0579 10.3394V13.4497C39.0579 14.2928 39.2345 14.9935 39.5877 15.5518C39.6561 15.7568 39.8611 16.0474 40.2029 16.4233C41.0118 17.2437 41.9917 17.6538 43.1424 17.6538H55.1224C56.4554 17.6538 57.5377 17.1126 58.3694 16.0303C58.6087 15.7227 58.7967 15.4093 58.9334 15.0903C59.1157 14.646 59.2068 14.0763 59.2068 13.3813V10.4761C59.2068 9.73551 59.1271 9.18294 58.9676 8.81836C58.6144 7.91829 58.0219 7.22331 57.1902 6.7334C56.5636 6.35742 55.8857 6.16943 55.1565 6.16943H43.1082C41.7866 6.16943 40.6928 6.7277 39.827 7.84424C39.5877 8.18604 39.4225 8.48796 39.3313 8.75C39.1491 9.17155 39.0579 9.70133 39.0579 10.3394Z" fill="white"/>
<path d="M70.8526 0H88.1817C90.5173 0 92.534 0.364583 94.2315 1.09375C94.5733 1.23047 94.8411 1.3444 95.0348 1.43555C95.3196 1.59505 95.6215 1.78304 95.9405 1.99951C97.4558 2.92236 98.5325 4.22689 99.1705 5.91309C99.5123 6.81315 99.6832 7.77018 99.6832 8.78418V9.00635C99.6832 10.2254 99.4269 11.3761 98.9142 12.4585C98.7547 12.7661 98.5553 13.1079 98.316 13.4839C98.1109 13.7573 97.866 14.0479 97.5812 14.3555C97.4444 14.515 97.3077 14.6574 97.171 14.7827L97.0001 14.9536L96.8634 15.0562L96.607 15.2612C96.402 15.4093 96.1456 15.5802 95.838 15.7739C95.7924 15.7967 95.7468 15.8252 95.7013 15.8594C95.3937 16.0189 95.1145 16.1613 94.8639 16.2866C94.7385 16.3436 94.6189 16.4006 94.505 16.4575C94.0606 16.6398 93.5935 16.805 93.1036 16.9531C94.5164 18.4115 95.4848 19.471 96.0089 20.1318C96.3621 20.5306 96.7096 20.9237 97.0514 21.311C97.7008 22.063 98.3217 22.7637 98.9142 23.4131C99.0965 23.584 99.2047 23.7036 99.2389 23.772H91.8561C91.4345 23.772 91.1041 23.7264 90.8648 23.6353C90.7965 23.6011 90.7338 23.5669 90.6769 23.5327C90.6199 23.4985 90.5572 23.4587 90.4889 23.4131C90.2496 23.2536 89.9819 22.9858 89.6856 22.6099C88.6033 21.3224 87.4583 19.9154 86.2506 18.3887L85.6524 17.6196C85.6183 17.6196 85.5499 17.631 85.4474 17.6538C84.741 17.6538 82.6161 17.6652 79.0729 17.688H74.732V21.5674C74.732 22.2965 74.4187 22.9118 73.7921 23.4131C73.4161 23.6751 72.9832 23.8062 72.4933 23.8062H68.5797V2.39258C68.5797 2.00521 68.6253 1.69759 68.7164 1.46973C68.762 1.33301 68.8417 1.1735 68.9557 0.991211C69.0354 0.877279 69.1323 0.769043 69.2462 0.666504C69.7247 0.222168 70.2602 0 70.8526 0ZM74.732 6.16943V11.5527H88.7286C89.8224 11.5527 90.6541 11.3647 91.2237 10.9888C91.6339 10.7267 91.9358 10.3792 92.1295 9.94629C92.289 9.61589 92.3688 9.23991 92.3688 8.81836C92.3688 7.98665 91.9871 7.29167 91.2237 6.7334C91.1098 6.65365 90.9902 6.58529 90.8648 6.52832C90.8307 6.51693 90.7965 6.49984 90.7623 6.47705C90.5572 6.37451 90.2439 6.28337 89.8224 6.20361C89.6856 6.20361 89.4977 6.19222 89.2584 6.16943H74.732Z" fill="white"/>
<path d="M103.143 0H108.15C109.05 0 109.734 0.38737 110.201 1.16211C110.395 1.49251 110.492 1.90267 110.492 2.39258V23.8062H105.348C104.789 23.8062 104.265 23.5726 103.775 23.1055C103.354 22.6725 103.143 22.1257 103.143 21.4648V0Z" fill="white"/>
<path d="M115.592 0H120.599C121.499 0 122.183 0.38737 122.65 1.16211C122.844 1.49251 122.941 1.90267 122.941 2.39258V23.8062H117.797C117.238 23.8062 116.714 23.5726 116.224 23.1055C115.803 22.6725 115.592 22.1257 115.592 21.4648V0Z" fill="white"/>
<path d="M130.092 0H133.937C134.062 0 135.088 0.826009 137.013 2.47803C138.939 4.13005 141.103 6.01562 143.507 8.13477C145.923 10.2425 148.065 12.1224 149.933 13.7744L152.736 16.2524V0H156.581C157.39 0 158.022 0.31901 158.478 0.957031C158.751 1.3444 158.888 1.78304 158.888 2.27295V21.499C158.888 22.2624 158.563 22.9004 157.914 23.4131C157.743 23.527 157.532 23.6239 157.282 23.7036C157.122 23.772 156.832 23.8062 156.41 23.8062H152.804C152.667 23.8062 151.631 22.9801 149.694 21.3281C147.757 19.6761 145.581 17.7962 143.166 15.6885C140.75 13.5693 138.608 11.6838 136.74 10.0317L133.937 7.5708V23.8062H130.194C129.636 23.8062 129.18 23.6922 128.827 23.4644C128.406 23.1795 128.104 22.7922 127.921 22.3022C127.83 22.063 127.785 21.8066 127.785 21.5332V2.32422C127.785 1.54948 128.098 0.928548 128.725 0.461426C129.112 0.153809 129.568 0 130.092 0Z" fill="white"/>
<path d="M172.175 0H184.428C186.49 0 188.416 0.620931 190.204 1.86279C190.501 2.04508 190.871 2.34131 191.315 2.75146C191.384 2.80843 191.458 2.87109 191.537 2.93945C192.096 3.57747 192.5 4.06738 192.751 4.40918C193.947 6.17513 194.545 8.12337 194.545 10.2539V13.5522C194.545 16.0702 193.731 18.3089 192.101 20.2686C191.589 20.8268 191.167 21.2256 190.837 21.4648C190.267 21.9434 189.68 22.3364 189.076 22.644C187.595 23.4188 186.034 23.8062 184.394 23.8062H172.209C170.01 23.8062 167.982 23.1283 166.125 21.7725C165.817 21.5332 165.384 21.1401 164.826 20.5933C164.268 19.9894 163.886 19.4995 163.681 19.1235C162.599 17.4487 162.057 15.6144 162.057 13.6206V10.1855C162.057 7.84993 162.804 5.73079 164.296 3.82812C164.513 3.57747 164.866 3.1901 165.356 2.66602C165.846 2.24447 166.267 1.93115 166.62 1.72607C168.364 0.575358 170.215 0 172.175 0ZM168.227 10.3394V13.4497C168.227 14.2928 168.403 14.9935 168.757 15.5518C168.825 15.7568 169.03 16.0474 169.372 16.4233C170.181 17.2437 171.161 17.6538 172.311 17.6538H184.291C185.624 17.6538 186.707 17.1126 187.538 16.0303C187.778 15.7227 187.966 15.4093 188.102 15.0903C188.285 14.646 188.376 14.0763 188.376 13.3813V10.4761C188.376 9.73551 188.296 9.18294 188.137 8.81836C187.783 7.91829 187.191 7.22331 186.359 6.7334C185.733 6.35742 185.055 6.16943 184.326 6.16943H172.277C170.956 6.16943 169.862 6.7277 168.996 7.84424C168.757 8.18604 168.591 8.48796 168.5 8.75C168.318 9.17155 168.227 9.70133 168.227 10.3394Z" fill="white"/>
</svg>
