<svg width="20" height="20" viewBox="0 0 20 20" fill="none" xmlns="http://www.w3.org/2000/svg">
<path d="M10 17.9166C13.935 17.9166 17.125 14.7267 17.125 10.7916C17.125 6.8566 13.935 3.66663 10 3.66663C6.06497 3.66663 2.875 6.8566 2.875 10.7916C2.875 14.7267 6.06497 17.9166 10 17.9166Z" stroke="white" stroke-width="1.1875" stroke-linecap="round"/>
<path d="M4.45833 15.5416L2.875 17.125M15.5417 15.5416L17.125 17.125" stroke="white" stroke-width="1.1875" stroke-linecap="round" stroke-linejoin="round"/>
<path d="M15.5417 3.32601L16.0131 3.0903C16.6823 2.75571 16.9337 2.79401 17.4657 3.32601C17.9977 3.85801 18.036 4.1094 17.7014 4.77856L17.4657 5.25M4.45838 3.32601L3.98694 3.0903C3.31777 2.75571 3.06639 2.79401 2.53439 3.32601C2.00238 3.85801 1.96409 4.1094 2.29867 4.77856L2.53439 5.25" stroke="white" stroke-width="1.1875" stroke-linecap="round"/>
<path d="M10 8.02087V11.1875L11.5833 12.7709" stroke="white" stroke-width="1.1875" stroke-linecap="round" stroke-linejoin="round"/>
<path d="M10 3.27087V2.08337" stroke="white" stroke-width="1.1875" stroke-linecap="round" stroke-linejoin="round"/>
<path d="M8.41663 2.08337H11.5833" stroke="white" stroke-width="1.1875" stroke-linecap="round" stroke-linejoin="round"/>
</svg>
