<svg width="17" height="21" viewBox="0 0 17 21" fill="none" xmlns="http://www.w3.org/2000/svg">
<g clip-path="url(#clip0_119_10733)">
<path d="M14.0292 10.7896C14.0568 13.8106 16.638 14.8159 16.6665 14.8287C16.6446 14.8996 16.2541 16.2613 15.3067 17.6678C14.4877 18.8839 13.6376 20.0954 12.2986 20.1205C10.983 20.1451 10.5598 19.3279 9.05558 19.3279C7.55177 19.3279 7.08171 20.0954 5.83621 20.1451C4.54371 20.1949 3.55946 18.8302 2.73371 17.6186C1.04621 15.1403 -0.243355 10.6154 1.48821 7.56108C2.3484 6.04425 3.88571 5.08381 5.55421 5.05917C6.8234 5.0346 8.02139 5.9266 8.79727 5.9266C9.57265 5.9266 11.0285 4.8539 12.5589 5.01143C13.1995 5.03854 14.998 5.27428 16.1528 6.99149C16.0597 7.05009 14.0069 8.26413 14.0292 10.7897M11.5565 3.37181C12.2428 2.528 12.7046 1.3534 12.5786 0.18457C11.5895 0.224951 10.3935 0.854158 9.68396 1.69746C9.04815 2.44432 8.49133 3.63962 8.64158 4.78527C9.74408 4.87194 10.8703 4.21613 11.5565 3.37181Z" fill="white"/>
</g>
<defs>
<clipPath id="clip0_119_10733">
<rect width="16" height="20" fill="white" transform="translate(0.666748 0.18457)"/>
</clipPath>
</defs>
</svg>
