<svg width="20" height="21" viewBox="0 0 20 21" fill="none" xmlns="http://www.w3.org/2000/svg">
<path d="M11.6667 2.68445V5.18445M15.8334 4.35111L14.1667 6.01778M17.5 8.51778H15" stroke="white" stroke-width="1.2" stroke-linecap="round" stroke-linejoin="round"/>
<path d="M7.63188 4.94464L7.29633 4.18966C7.07693 3.69601 6.96723 3.44918 6.80317 3.26029C6.59756 3.02356 6.32956 2.8494 6.02973 2.75766C5.79048 2.68445 5.52038 2.68445 4.98018 2.68445C4.18993 2.68445 3.79479 2.68445 3.46311 2.83636C3.07239 3.0153 2.71953 3.40385 2.57894 3.80995C2.45959 4.15469 2.49378 4.50897 2.56215 5.21753C3.28993 12.7596 7.42484 16.8945 14.9669 17.6223C15.6755 17.6907 16.0298 17.7249 16.3745 17.6055C16.7806 17.4649 17.1692 17.112 17.3481 16.7214C17.5 16.3896 17.5 15.9945 17.5 15.2043C17.5 14.664 17.5 14.3939 17.4268 14.1547C17.3351 13.8549 17.1609 13.5869 16.9242 13.3813C16.7352 13.2172 16.4884 13.1075 15.9948 12.8881L15.2398 12.5525C14.7052 12.3149 14.4379 12.1962 14.1663 12.1704C13.9063 12.1456 13.6443 12.1821 13.4009 12.2769C13.1467 12.3759 12.9219 12.5631 12.4725 12.9376C12.0251 13.3104 11.8014 13.4969 11.5281 13.5967C11.2858 13.6852 10.9655 13.718 10.7103 13.6804C10.4224 13.6379 10.2019 13.5202 9.76108 13.2845C8.38933 12.5515 7.63294 11.7951 6.89988 10.4234C6.66428 9.98253 6.54648 9.76203 6.50406 9.4742C6.46645 9.21895 6.49923 8.89861 6.58775 8.65636C6.6876 8.38301 6.87401 8.15933 7.24683 7.71195C7.62135 7.26251 7.80862 7.0378 7.90763 6.78354C8.00238 6.54023 8.03884 6.27811 8.01412 6.01818C7.98828 5.74655 7.86948 5.47925 7.63188 4.94464Z" stroke="white" stroke-width="1.2" stroke-linecap="round"/>
</svg>
