<svg width="20" height="21" viewBox="0 0 20 21" fill="none" xmlns="http://www.w3.org/2000/svg">
<g clip-path="url(#clip0_119_10729)">
<path d="M20 10.1846C20 4.66176 15.5228 0.18457 10 0.18457C4.47719 0.18457 0 4.66176 0 10.1846C0 15.1758 3.65687 19.3129 8.4375 20.0631V13.0752H5.89844V10.1846H8.4375V7.98145C8.4375 5.4752 9.93047 4.09082 12.2147 4.09082C13.3088 4.09082 14.4531 4.28613 14.4531 4.28613V6.74707H13.1922C11.9499 6.74707 11.5625 7.51793 11.5625 8.30879V10.1846H14.3359L13.8926 13.0752H11.5625V20.0631C16.3431 19.3129 20 15.1759 20 10.1846Z" fill="#1877F2"/>
<path d="M13.8926 13.0752L14.3359 10.1846H11.5625V8.30879C11.5625 7.51785 11.9499 6.74707 13.1922 6.74707H14.4531V4.28613C14.4531 4.28613 13.3088 4.09082 12.2146 4.09082C9.93047 4.09082 8.4375 5.4752 8.4375 7.98145V10.1846H5.89844V13.0752H8.4375V20.0631C8.95439 20.1441 9.4768 20.1847 10 20.1846C10.5232 20.1847 11.0456 20.1441 11.5625 20.0631V13.0752H13.8926Z" fill="white"/>
</g>
<defs>
<clipPath id="clip0_119_10729">
<rect width="20" height="20" fill="white" transform="translate(0 0.18457)"/>
</clipPath>
</defs>
</svg>
