<svg width="78" height="17" viewBox="0 0 78 17" fill="none" xmlns="http://www.w3.org/2000/svg">
<path d="M0.77 11.5V4.5H1.61V11.5H0.77ZM3.15281 11.5V4.5H4.95281C5.76615 4.5 6.43615 4.64333 6.96281 4.93C7.49615 5.21 7.88948 5.61333 8.14281 6.14C8.40281 6.66 8.53281 7.28667 8.53281 8.02C8.53281 8.74 8.40281 9.36 8.14281 9.88C7.88948 10.4 7.49615 10.8 6.96281 11.08C6.43615 11.36 5.76615 11.5 4.95281 11.5H3.15281ZM3.99281 10.8H4.93281C5.60615 10.8 6.14281 10.69 6.54281 10.47C6.94281 10.2433 7.22948 9.92333 7.40281 9.51C7.57615 9.09 7.66281 8.59333 7.66281 8.02C7.66281 7.43333 7.57615 6.93 7.40281 6.51C7.22948 6.09 6.94281 5.76667 6.54281 5.54C6.14281 5.31333 5.60615 5.2 4.93281 5.2H3.99281V10.8ZM10.0634 11.55C9.90344 11.55 9.76677 11.4967 9.65344 11.39C9.54677 11.2767 9.49344 11.14 9.49344 10.98C9.49344 10.82 9.54677 10.6867 9.65344 10.58C9.76677 10.4667 9.90344 10.41 10.0634 10.41C10.2368 10.41 10.3734 10.4667 10.4734 10.58C10.5801 10.6867 10.6334 10.82 10.6334 10.98C10.6334 11.14 10.5801 11.2767 10.4734 11.39C10.3734 11.4967 10.2368 11.55 10.0634 11.55ZM10.0634 7.26C9.90344 7.26 9.76677 7.20667 9.65344 7.1C9.54677 6.98667 9.49344 6.85 9.49344 6.69C9.49344 6.53 9.54677 6.39667 9.65344 6.29C9.76677 6.17667 9.90344 6.12 10.0634 6.12C10.2368 6.12 10.3734 6.17667 10.4734 6.29C10.5801 6.39667 10.6334 6.53 10.6334 6.69C10.6334 6.85 10.5801 6.98667 10.4734 7.1C10.3734 7.20667 10.2368 7.26 10.0634 7.26ZM14.4586 11.5V10.91C14.9519 10.5367 15.4186 10.16 15.8586 9.78C16.2986 9.4 16.6886 9.02333 17.0286 8.65C17.3686 8.27 17.6353 7.9 17.8286 7.54C18.0219 7.18 18.1186 6.83333 18.1186 6.5C18.1186 6.25333 18.0719 6.02667 17.9786 5.82C17.8919 5.60667 17.7486 5.43333 17.5486 5.3C17.3553 5.16667 17.0919 5.1 16.7586 5.1C16.4386 5.1 16.1719 5.17 15.9586 5.31C15.7453 5.44333 15.5853 5.62333 15.4786 5.85C15.3719 6.07 15.3186 6.31333 15.3186 6.58H14.5086C14.5153 6.12 14.6153 5.72667 14.8086 5.4C15.0019 5.06667 15.2686 4.81333 15.6086 4.64C15.9486 4.46667 16.3353 4.38 16.7686 4.38C17.1953 4.38 17.5719 4.46 17.8986 4.62C18.2253 4.77333 18.4819 5.00667 18.6686 5.32C18.8619 5.62667 18.9586 6.01 18.9586 6.47C18.9586 6.79667 18.8886 7.12333 18.7486 7.45C18.6153 7.77667 18.4319 8.09667 18.1986 8.41C17.9653 8.71667 17.7053 9.01333 17.4186 9.3C17.1386 9.58667 16.8486 9.85667 16.5486 10.11C16.2486 10.3633 15.9653 10.5933 15.6986 10.8H19.1986V11.5H14.4586ZM22.6673 11.62C22.2206 11.62 21.8139 11.54 21.4473 11.38C21.0873 11.2133 20.8006 10.9667 20.5873 10.64C20.3739 10.3133 20.2606 9.90667 20.2473 9.42H21.0973C21.1039 9.68667 21.1673 9.93333 21.2873 10.16C21.4139 10.38 21.5939 10.5567 21.8273 10.69C22.0606 10.8233 22.3406 10.89 22.6673 10.89C22.9939 10.89 23.2673 10.8267 23.4873 10.7C23.7073 10.5733 23.8739 10.4067 23.9873 10.2C24.1006 9.98667 24.1573 9.75 24.1573 9.49C24.1573 9.17667 24.0773 8.92333 23.9173 8.73C23.7639 8.53 23.5539 8.38333 23.2873 8.29C23.0273 8.19 22.7406 8.14 22.4273 8.14H21.9073V7.43H22.4273C22.9006 7.43 23.2706 7.32333 23.5373 7.11C23.8106 6.89 23.9473 6.58667 23.9473 6.2C23.9473 5.88667 23.8406 5.62667 23.6273 5.42C23.4139 5.21333 23.0939 5.11 22.6673 5.11C22.2473 5.11 21.9173 5.22333 21.6773 5.45C21.4373 5.67667 21.3006 5.96667 21.2673 6.32H20.4173C20.4373 5.94 20.5406 5.60333 20.7273 5.31C20.9206 5.01667 21.1806 4.79 21.5073 4.63C21.8406 4.46333 22.2273 4.38 22.6673 4.38C23.1339 4.38 23.5239 4.46 23.8373 4.62C24.1573 4.78 24.3973 4.99333 24.5573 5.26C24.7173 5.52667 24.7973 5.82333 24.7973 6.15C24.7973 6.39 24.7506 6.62 24.6573 6.84C24.5706 7.06 24.4373 7.25 24.2573 7.41C24.0773 7.57 23.8473 7.68333 23.5673 7.75C23.8406 7.80333 24.0839 7.90667 24.2973 8.06C24.5173 8.21333 24.6906 8.41 24.8173 8.65C24.9439 8.89 25.0073 9.17 25.0073 9.49C25.0073 9.87 24.9173 10.2233 24.7373 10.55C24.5639 10.87 24.3039 11.13 23.9573 11.33C23.6106 11.5233 23.1806 11.62 22.6673 11.62ZM27.3078 11.5V5.44L25.8678 5.9V5.24L27.5878 4.5H28.1578V11.5H27.3078ZM32.0058 11.62C31.5391 11.62 31.1324 11.5367 30.7858 11.37C30.4458 11.2033 30.1758 10.98 29.9758 10.7C29.7824 10.4133 29.6624 10.0867 29.6158 9.72H30.4358C30.5091 10.0667 30.6791 10.35 30.9458 10.57C31.2191 10.79 31.5758 10.9 32.0158 10.9C32.3424 10.9 32.6191 10.8267 32.8458 10.68C33.0791 10.5267 33.2591 10.32 33.3858 10.06C33.5124 9.79333 33.5758 9.49667 33.5758 9.17C33.5758 8.84333 33.5124 8.55667 33.3858 8.31C33.2658 8.05667 33.0924 7.86 32.8658 7.72C32.6391 7.57333 32.3724 7.5 32.0658 7.5C31.6991 7.5 31.3858 7.57333 31.1258 7.72C30.8724 7.86667 30.6758 8.04667 30.5358 8.26H29.7058L30.2358 4.5H33.9958V5.23H30.8858L30.5258 7.42C30.6924 7.23333 30.9124 7.08333 31.1858 6.97C31.4658 6.85 31.7891 6.79 32.1558 6.79C32.4958 6.79 32.8024 6.85 33.0758 6.97C33.3491 7.09 33.5824 7.26 33.7758 7.48C33.9758 7.69333 34.1258 7.94333 34.2258 8.23C34.3324 8.51667 34.3858 8.82667 34.3858 9.16C34.3858 9.49333 34.3291 9.81 34.2158 10.11C34.1091 10.4033 33.9524 10.6633 33.7458 10.89C33.5458 11.1167 33.2991 11.2967 33.0058 11.43C32.7124 11.5567 32.3791 11.62 32.0058 11.62ZM38.2402 11.62C37.7402 11.62 37.3169 11.5267 36.9702 11.34C36.6302 11.1533 36.3569 10.9033 36.1502 10.59C35.9502 10.27 35.8036 9.91 35.7102 9.51C35.6169 9.11 35.5702 8.7 35.5702 8.28C35.5702 7.50667 35.6736 6.83 35.8802 6.25C36.0936 5.66333 36.4002 5.20667 36.8002 4.88C37.2002 4.54667 37.6836 4.38 38.2502 4.38C38.6902 4.38 39.0669 4.46333 39.3802 4.63C39.7002 4.79667 39.9536 5.02 40.1402 5.3C40.3269 5.57333 40.4402 5.88 40.4802 6.22H39.7002C39.6336 5.86667 39.4702 5.59333 39.2102 5.4C38.9569 5.20667 38.6336 5.11 38.2402 5.11C37.8869 5.11 37.5702 5.22 37.2902 5.44C37.0169 5.66 36.8002 5.99333 36.6402 6.44C36.4802 6.88 36.3902 7.44333 36.3702 8.13C36.3702 8.14333 36.3702 8.15667 36.3702 8.17C36.3702 8.18333 36.3702 8.19667 36.3702 8.21C36.4636 7.99667 36.6036 7.8 36.7902 7.62C36.9769 7.44 37.2036 7.29667 37.4702 7.19C37.7369 7.07667 38.0302 7.02 38.3502 7.02C38.7436 7.02 39.1069 7.11333 39.4402 7.3C39.7802 7.48667 40.0536 7.75 40.2602 8.09C40.4669 8.42333 40.5702 8.81667 40.5702 9.27C40.5702 9.66333 40.4736 10.04 40.2802 10.4C40.0936 10.76 39.8269 11.0533 39.4802 11.28C39.1336 11.5067 38.7202 11.62 38.2402 11.62ZM38.1802 10.88C38.4736 10.88 38.7336 10.8133 38.9602 10.68C39.1936 10.5467 39.3769 10.3633 39.5102 10.13C39.6502 9.89 39.7202 9.61667 39.7202 9.31C39.7202 8.99667 39.6502 8.72333 39.5102 8.49C39.3769 8.25667 39.1936 8.07667 38.9602 7.95C38.7336 7.81667 38.4736 7.75 38.1802 7.75C37.8802 7.75 37.6102 7.82 37.3702 7.96C37.1302 8.09333 36.9402 8.28 36.8002 8.52C36.6602 8.75333 36.5902 9.02 36.5902 9.32C36.5902 9.62667 36.6602 9.9 36.8002 10.14C36.9402 10.3733 37.1302 10.5567 37.3702 10.69C37.6102 10.8167 37.8802 10.88 38.1802 10.88ZM45.1905 11.5V10H41.6405V9.35L45.0405 4.5H46.0205V9.26H47.0605V10H46.0205V11.5H45.1905ZM42.5705 9.26H45.2305V5.43L42.5705 9.26ZM50.623 11.62C50.123 11.62 49.6997 11.5267 49.353 11.34C49.013 11.1533 48.7397 10.9033 48.533 10.59C48.333 10.27 48.1864 9.91 48.093 9.51C47.9997 9.11 47.953 8.7 47.953 8.28C47.953 7.50667 48.0564 6.83 48.263 6.25C48.4764 5.66333 48.783 5.20667 49.183 4.88C49.583 4.54667 50.0664 4.38 50.633 4.38C51.073 4.38 51.4497 4.46333 51.763 4.63C52.083 4.79667 52.3364 5.02 52.523 5.3C52.7097 5.57333 52.823 5.88 52.863 6.22H52.083C52.0164 5.86667 51.853 5.59333 51.593 5.4C51.3397 5.20667 51.0164 5.11 50.623 5.11C50.2697 5.11 49.953 5.22 49.673 5.44C49.3997 5.66 49.183 5.99333 49.023 6.44C48.863 6.88 48.773 7.44333 48.753 8.13C48.753 8.14333 48.753 8.15667 48.753 8.17C48.753 8.18333 48.753 8.19667 48.753 8.21C48.8464 7.99667 48.9864 7.8 49.173 7.62C49.3597 7.44 49.5864 7.29667 49.853 7.19C50.1197 7.07667 50.413 7.02 50.733 7.02C51.1264 7.02 51.4897 7.11333 51.823 7.3C52.163 7.48667 52.4364 7.75 52.643 8.09C52.8497 8.42333 52.953 8.81667 52.953 9.27C52.953 9.66333 52.8564 10.04 52.663 10.4C52.4764 10.76 52.2097 11.0533 51.863 11.28C51.5164 11.5067 51.103 11.62 50.623 11.62ZM50.563 10.88C50.8564 10.88 51.1164 10.8133 51.343 10.68C51.5764 10.5467 51.7597 10.3633 51.893 10.13C52.033 9.89 52.103 9.61667 52.103 9.31C52.103 8.99667 52.033 8.72333 51.893 8.49C51.7597 8.25667 51.5764 8.07667 51.343 7.95C51.1164 7.81667 50.8564 7.75 50.563 7.75C50.263 7.75 49.993 7.82 49.753 7.96C49.513 8.09333 49.323 8.28 49.183 8.52C49.043 8.75333 48.973 9.02 48.973 9.32C48.973 9.62667 49.043 9.9 49.183 10.14C49.323 10.3733 49.513 10.5567 49.753 10.69C49.993 10.8167 50.263 10.88 50.563 10.88ZM57.5733 11.5V10H54.0233V9.35L57.4233 4.5H58.4033V9.26H59.4433V10H58.4033V11.5H57.5733ZM54.9533 9.26H57.6133V5.43L54.9533 9.26Z" fill="white"/>
<path d="M70.5 10C70.5 8.5858 70.5 7.8787 70.9393 7.43934C71.3787 7 72.0858 7 73.5 7H74C75.4142 7 76.1213 7 76.5606 7.43934C77 7.8787 77 8.5858 77 10V10.5C77 11.9142 77 12.6213 76.5606 13.0606C76.1213 13.5 75.4142 13.5 74 13.5H73.5C72.0858 13.5 71.3787 13.5 70.9393 13.0606C70.5 12.6213 70.5 11.9142 70.5 10.5V10Z" stroke="white" stroke-linecap="round" stroke-linejoin="round"/>
<path d="M74.5 7C74.4988 5.52146 74.4764 4.75561 74.046 4.23122C73.9629 4.12995 73.8701 4.03709 73.7688 3.95398C73.2156 3.5 72.3938 3.5 70.75 3.5C69.1063 3.5 68.2844 3.5 67.7312 3.95398C67.6299 4.03709 67.5371 4.12995 67.454 4.23122C67 4.78439 67 5.60626 67 7.25C67 8.89375 67 9.7156 67.454 10.2688C67.5371 10.3701 67.6299 10.4629 67.7312 10.546C68.2556 10.9764 69.0215 10.9988 70.5 11" stroke="white" stroke-linecap="round" stroke-linejoin="round"/>
</svg>
