<svg width="21" height="21" viewBox="0 0 21 21" fill="none" xmlns="http://www.w3.org/2000/svg">
<g clip-path="url(#clip0_119_10722)">
<path d="M7.30058 0.842349C5.30227 1.53558 3.57893 2.85136 2.38369 4.59641C1.18846 6.34147 0.58432 8.42382 0.660025 10.5376C0.735729 12.6514 1.48728 14.6852 2.8043 16.3403C4.12131 17.9953 5.93436 19.1845 7.97715 19.733C9.63328 20.1603 11.3684 20.1791 13.0334 19.7877C14.5417 19.4489 15.9362 18.7242 17.0803 17.6845C18.271 16.5695 19.1353 15.1509 19.5803 13.5814C20.0639 11.8746 20.15 10.0797 19.8318 8.33454H10.5318V12.1923H15.9178C15.8101 12.8076 15.5795 13.3949 15.2396 13.919C14.8997 14.443 14.4575 14.8931 13.9396 15.2424C13.282 15.6774 12.5406 15.9701 11.7631 16.1017C10.9833 16.2467 10.1835 16.2467 9.40371 16.1017C8.61338 15.9383 7.86574 15.6121 7.2084 15.1439C6.15238 14.3964 5.35945 13.3344 4.94277 12.1095C4.51904 10.8617 4.51904 9.50892 4.94277 8.2611C5.23937 7.38644 5.7297 6.59006 6.37715 5.93141C7.11807 5.16383 8.0561 4.61516 9.08833 4.34559C10.1206 4.07603 11.2071 4.09599 12.2287 4.40329C13.0268 4.64827 13.7566 5.07631 14.36 5.65329C14.9672 5.04912 15.5735 4.44339 16.1787 3.8361C16.4912 3.50954 16.8318 3.1986 17.1396 2.86422C16.2187 2.00716 15.1376 1.34025 13.9584 0.901724C11.8111 0.122021 9.46148 0.101067 7.30058 0.842349Z" fill="white"/>
<path d="M7.30059 0.842376C9.46131 0.10059 11.8109 0.120992 13.9584 0.900189C15.1378 1.34169 16.2184 2.01181 17.1381 2.87206C16.8256 3.20644 16.4959 3.51894 16.1771 3.84394C15.5709 4.44915 14.9652 5.05227 14.36 5.65331C13.7566 5.07634 13.0268 4.6483 12.2287 4.40331C11.2074 4.09494 10.1209 4.07383 9.08843 4.34229C8.05593 4.61075 7.11732 5.15841 6.37559 5.92519C5.72814 6.58384 5.23781 7.38021 4.94121 8.25488L1.70215 5.74706C2.86154 3.44794 4.86894 1.68929 7.30059 0.842376Z" fill="#E33629"/>
<path d="M0.842793 8.23145C1.01689 7.36862 1.30592 6.53305 1.70217 5.74707L4.94123 8.26113C4.5175 9.50895 4.5175 10.8617 4.94123 12.1096C3.86206 12.9429 2.78238 13.7804 1.70217 14.6221C0.710216 12.6476 0.407688 10.3979 0.842793 8.23145Z" fill="#F8BD00"/>
<path d="M10.5318 8.33301H19.8318C20.1499 10.0782 20.0639 11.8731 19.5803 13.5799C19.1353 15.1494 18.271 16.5679 17.0803 17.683C16.0349 16.8674 14.9849 16.058 13.9396 15.2424C14.4579 14.8928 14.9002 14.4422 15.2401 13.9176C15.58 13.393 15.8105 12.8051 15.9178 12.1893H10.5318C10.5303 10.9049 10.5318 9.61895 10.5318 8.33301Z" fill="#587DBD"/>
<path d="M1.70056 14.6221C2.78077 13.7888 3.86046 12.9513 4.93962 12.1096C5.35714 13.3349 6.15119 14.397 7.20837 15.144C7.86776 15.61 8.61702 15.9336 9.40837 16.094C10.1881 16.239 10.988 16.239 11.7677 16.094C12.5452 15.9624 13.2866 15.6697 13.9443 15.2346C14.9896 16.0502 16.0396 16.8596 17.0849 17.6752C15.941 18.7154 14.5465 19.4407 13.0381 19.7799C11.3731 20.1713 9.63794 20.1526 7.98181 19.7252C6.67197 19.3755 5.44849 18.759 4.38806 17.9143C3.26566 17.0232 2.34893 15.9002 1.70056 14.6221Z" fill="#319F43"/>
</g>
<defs>
<clipPath id="clip0_119_10722">
<rect width="20" height="20" fill="white" transform="translate(0.333374 0.18457)"/>
</clipPath>
</defs>
</svg>
