<svg width="20" height="21" viewBox="0 0 20 21" fill="none" xmlns="http://www.w3.org/2000/svg">
<path d="M3.55655 15.8884C3.74395 17.2803 4.89682 18.3707 6.29976 18.4352C7.48027 18.4894 8.67946 18.5178 10 18.5178C11.3206 18.5178 12.5198 18.4894 13.7003 18.4352C15.1033 18.3707 16.2561 17.2803 16.4435 15.8884C16.5659 14.98 16.6667 14.0491 16.6667 13.1011C16.6667 12.1531 16.5659 11.2222 16.4435 10.3139C16.2561 8.92195 15.1033 7.83152 13.7003 7.76702C12.5198 7.71276 11.3206 7.68445 10 7.68445C8.67946 7.68445 7.48027 7.71276 6.29976 7.76702C4.89682 7.83152 3.74395 8.92195 3.55655 10.3139C3.43425 11.2222 3.33337 12.1531 3.33337 13.1011C3.33337 14.0491 3.43425 14.98 3.55655 15.8884Z" stroke="white" stroke-width="1.2"/>
<path d="M6.25 7.68441V5.60107C6.25 3.53001 7.92893 1.85107 10 1.85107C12.0711 1.85107 13.75 3.53001 13.75 5.60107V7.68441" stroke="white" stroke-width="1.2" stroke-linecap="round" stroke-linejoin="round"/>
<path d="M13.3334 13.0928V13.1028" stroke="white" stroke-width="1.4" stroke-linecap="round" stroke-linejoin="round"/>
<path d="M10 13.0928V13.1028" stroke="white" stroke-width="1.4" stroke-linecap="round" stroke-linejoin="round"/>
<path d="M6.66663 13.0928V13.1028" stroke="white" stroke-width="1.4" stroke-linecap="round" stroke-linejoin="round"/>
</svg>
