<svg width="20" height="21" viewBox="0 0 20 21" fill="none" xmlns="http://www.w3.org/2000/svg">
<path d="M5.83337 7.26782L8.28506 8.71732C9.71437 9.56241 10.2857 9.56241 11.715 8.71732L14.1667 7.26782" stroke="white" stroke-width="1.2" stroke-linecap="round" stroke-linejoin="round"/>
<path d="M1.67976 11.4141C1.73425 13.9687 1.76148 15.246 2.70409 16.1922C3.6467 17.1384 4.95857 17.1713 7.58232 17.2373C9.19938 17.2779 10.8005 17.2779 12.4176 17.2373C15.0414 17.1713 16.3532 17.1384 17.2958 16.1922C18.2385 15.246 18.2657 13.9687 18.3201 11.4141C18.3377 10.5927 18.3377 9.7761 18.3201 8.95477C18.2657 6.40012 18.2385 5.12282 17.2958 4.17663C16.3532 3.23043 15.0414 3.19748 12.4176 3.13155C10.8005 3.09092 9.19938 3.09092 7.58231 3.13154C4.95857 3.19746 3.6467 3.23042 2.70409 4.17662C1.76148 5.12281 1.73424 6.40012 1.67976 8.95468C1.66225 9.7761 1.66225 10.5927 1.67976 11.4141Z" stroke="white" stroke-width="1.2" stroke-linejoin="round"/>
</svg>
