<svg width="20" height="20" viewBox="0 0 20 20" fill="none" xmlns="http://www.w3.org/2000/svg">
<path d="M11.9789 10.0007C11.9789 11.0937 11.0928 11.9798 9.99978 11.9798C8.90673 11.9798 8.02063 11.0937 8.02063 10.0007C8.02063 8.90761 8.90673 8.02148 9.99978 8.02148C11.0928 8.02148 11.9789 8.90761 11.9789 10.0007Z" stroke="white" stroke-width="1.1875" stroke-linecap="round" stroke-linejoin="round"/>
<path d="M13.1667 4.45898C15.1296 4.45898 16.484 4.76314 17.2303 4.9944C17.6599 5.12755 17.9167 5.53477 17.9167 5.98457V13.7075C17.9167 14.5903 16.9445 15.2545 16.077 15.0907C15.3328 14.9502 14.3627 14.8373 13.1667 14.8373C9.40558 14.8373 8.50347 16.2668 2.98967 15.0509C2.45756 14.9335 2.08337 14.455 2.08337 13.9101V5.9799C2.08337 5.20735 2.81233 4.64397 3.57011 4.79433C8.57243 5.78697 9.54159 4.45898 13.1667 4.45898Z" stroke="white" stroke-width="1.1875" stroke-linecap="round" stroke-linejoin="round"/>
<path d="M2.08337 7.62581C3.62818 7.62581 5.01636 6.36316 5.19384 5.05619M15.1463 4.85498C15.1463 6.4697 16.5436 7.9971 17.9167 7.9971M17.9167 12.3758C16.4133 12.3758 14.956 13.4131 14.8308 14.8286M5.25043 15.1436C5.25043 13.3946 3.83266 11.9769 2.08376 11.9769" stroke="white" stroke-width="1.1875" stroke-linecap="round" stroke-linejoin="round"/>
</svg>
