<svg width="20" height="20" viewBox="0 0 20 20" fill="none" xmlns="http://www.w3.org/2000/svg">
<path d="M10.8333 5.83333C10.8333 7.67428 9.34092 9.16667 7.50001 9.16667C5.65905 9.16667 4.16667 7.67428 4.16667 5.83333C4.16667 3.99238 5.65905 2.5 7.50001 2.5C9.34092 2.5 10.8333 3.99238 10.8333 5.83333Z" stroke="white" stroke-width="1.2"/>
<path d="M12.5 9.16667C14.3409 9.16667 15.8333 7.67428 15.8333 5.83333C15.8333 3.99238 14.3409 2.5 12.5 2.5" stroke="white" stroke-width="1.2" stroke-linecap="round" stroke-linejoin="round"/>
<path d="M9.16667 11.6667H5.83334C3.53216 11.6667 1.66667 13.5322 1.66667 15.8334C1.66667 16.7539 2.41286 17.5 3.33334 17.5H11.6667C12.5872 17.5 13.3333 16.7539 13.3333 15.8334C13.3333 13.5322 11.4678 11.6667 9.16667 11.6667Z" stroke="white" stroke-width="1.2" stroke-linejoin="round"/>
<path d="M14.1667 11.6667C16.4678 11.6667 18.3333 13.5322 18.3333 15.8334C18.3333 16.7539 17.5872 17.5 16.6667 17.5H15.4167" stroke="white" stroke-width="1.2" stroke-linecap="round" stroke-linejoin="round"/>
</svg>
